<svg xmlns="http://www.w3.org/2000/svg" viewBox="0 0 1039.92 851.68"><defs><style>.a{fill:#fff;}.b{fill:#231f20;}.c{fill:#ec1c24;}</style></defs><path d="M852.55,443.15c16.54,8.86,33,12.37,50,2,9.28-5.64,13.73-15.12,19.09-23.63,6.21-9.87,15.24-15.49,27.16-17.45,3.16-.52,6.45-1,9.94.58-1.72,3.16-5.23,2.74-7.81,3.3-12.74,2.75-21.83,8.91-26.27,20.81-3.21,8.64-10.83,14.87-17.26,23.14,12.35-1.3,23.65-2.3,34.89-3.73,35.37-4.49,62.77,8.1,84.41,33.25a22,22,0,0,1,2.53,3.87c.26.48,0,1.2,0,2.21-3.55.05-5.43-2.24-7.45-4.11-16.61-15.38-36.69-24.17-59.94-26.84-10-1.15-19.32,2.58-28.88,4.23-26.22,4.51-52.26,6.21-78.31-.81a141.07,141.07,0,0,1-19.55-7c-3.8-1.65-5-.71-4.85,3.06.65,23.76,19.1,47.89,43.17,55.55,9.35,3,18.44-.11,27.34-2.79,5.77-1.73,11.45-3.86,17.63-3.81,5.71,0,10.86,1.49,16.2,7.25C925,510.41,917,508.66,909.29,511s-15.13,5.35-23.9,8.5c25,14.9,28.81,35.91,23.62,59.67-2.86-1.48-2.11-3.92-2.18-6.08a61.88,61.88,0,0,0-11-33.61,36.39,36.39,0,0,0-15.26-13c-13.23-6-26.23-12.34-37.57-21.17-3.31-2.58-5.15-1.79-6.71,1.65-2.9,6.36-5.78,12.74-9.11,18.9-2.06,3.84-.46,5.4,3.17,6.78,9.55,3.63,19,4.23,28.39-.3a61.83,61.83,0,0,1,9.44-3.93c-2.75,5.85-8,8.78-14.33,10.38-8.14,2.06-16.25,1-24.29-.46-5.22-.93-6.35.38-4.59,5,1.89,5,5.79,6.74,11,7.66C848.09,553.24,860,556,870.85,562c19.42,10.78,27.34,28.78,35.17,46.89.53,1.22.91,2.82-.52,3.5-2.06,1-2.87-.93-3.58-2.15-5.17-8.95-10.45-17.76-17.86-25.42-13.66-14.13-30-22.91-50.87-24.12-6.74-.38-13.42-1.58-20.13-2.37-4.42-.52-6.64.52-5.39,5.34a37.7,37.7,0,0,1-.12,18.61c-2.73,10.84-.11,19.58,10.05,26.06,1.45.93,4,2.15,3,3.86-1.39,2.44-3.7.35-5.39-.31-8.66-3.39-17.41-6.21-27-5.78-4.49.2-9,.6-12.87,2.67-14.9,8.05-30.74,13.29-47.74,14.09a1.93,1.93,0,0,0,.76,2.77c18.7,13,34.89,28.6,52.69,42.54,16.81,13.18,35.71,18.78,57.79,15.5,11.48-1.7,23.16-2.49,34.78-3.12,24.61-1.35,42.91,9.41,57.64,26.55,1.2,1.4,3.66,3.27,1.44,4.9s-3.6-1.1-5-2.33c-15.81-14-33.71-23-56.48-20.93-1.85.17-3.73.25-5.56.58-36.48,6.47-40,6.49-73.9.17-1.38,1.8.23,3.24.77,4.76,3.32,9.2,6.69,18.4,8,28.08,1.07,7.85,5.93,12.43,14.1,14.13,8.42,1.76,16.93,3.14,25.27,5.17,9.37,2.28,16.86,6.79,19.75,17-4.52-.53-6.18-3.41-8.24-5.39a29.43,29.43,0,0,0-22.52-8.59c-8.14.32-15.68-1.86-22.8-5.37-4.47-2.21-5.93-1.57-6.88,3.63-3.19,17.41,3,31.67,15,44.59A258.45,258.45,0,0,1,833.47,811c-13.9-8.95-26.8-18.54-35.67-32.41-7.63-11.91-9.35-24.85-9.76-37.91C787,707.89,770,683,744.41,662c-1-.86-2-2.16-3.51-1.79-1.67.42-1.45,2-1.42,3.29.41,16.07-6.21,30.31-13.51,44.37a4,4,0,0,1-.3.58c-13,17.82-10.18,35.33,1.17,52.7.57.88,1.39,1.76.85,3-7-2.58-17.77-17.68-18.36-26.21-.61-8.85,0-17.37,4.5-25.77,5.06-9.42,8.4-19.62,12.63-29.43,4.08-9.46,2.66-18.52-1.6-27.59-6.53-13.87-17.25-24.42-30.15-33.36-21-14.54-39.16-31.25-50.57-53.55-2.8-5.47-9.3-6.09-12.95-1-11.18,15.65-18.86,32.66-20.61,51.58-.36,3.82,1.65,7.12,3.67,10.3,5.44,8.6,10,17.49,12.28,27.34,2.7,11.77,11.7,18.17,23.15,22.35,3.36,1.22,7.08,1.92,10.57,5.47-19.39,0-34.38-9.82-41.31-26.29-2.15-5.13-4-10.39-8.08-14.76,3.4,20.19-1,41.47,10.91,60.37,3.4,5.38,7.31,9.69,13.67,12.36,11.46,4.82,22.68,10.14,33.93,15.39,13.71,6.39,21.23,16.48,21,31,0,1.2.32,2.63-1.4,3.46-2.7-1.32-2.09-4.07-2.83-6.15-4.86-13.59-13.61-23.13-29.39-26.77a89.93,89.93,0,0,1-41.61-21.63c-1.1-1-2.06-2.93-3.8-2.42-2,.58-2,2.71-2.19,4.39-.64,6.31,3.15,10.66,8,14.3,7.41,5.59,15.05,10.92,22.54,16.43,12.76,9.39,20.26,21.24,19.8,36.73a13,13,0,0,1-.31,2.56c-.08.38-.44.71-1,1.48-3.67-2.4-3.92-6.32-4.41-9.53-2-13-10.18-22-21.48-28.92-8-4.87-16.41-9.1-24.51-13.8-3.53-2-5.81-1.68-8,1.71-6.33,10-15.07,18.09-25.15,24.89-16.14,10.9-21,26.7-23.07,43.92-.88,7.34-1.9,14.75-6.1,21.57-3.19-13.45-4.31-26.91-.35-40.3,4.11-13.89,16.36-22.61,25.95-33.45-7.57,0-14.63,2.07-21.9,2-2.32,0-4.69.42-7,.12-5.73-.76-11.22-1.3-13.93,5.22-5.15-7.69-8.45-8.58-17.7-5.14-6.38,2.37-11.7,6.22-16.82,10.34-1.66,1.34-3,3.21-5.72,3.45,3.24-10.71,16.72-20.24,30.7-21.18,5.57-.37,9-2.28,11.69-6.68,3.13-5.19,8.16-8.81,13.62-11.85,5.2-2.89,10.21-6.14,15.67-8.54,16.67-7.34,20.67-20.8,18.66-35.69-1.87-13.84-3-27.82-6.21-41.54a92.66,92.66,0,0,0-12.93-29.15c-2.21-3.41-4-4.18-7.28-.93a101.76,101.76,0,0,0-11.25,14c-7.07,10-11.54,21.17-16.54,32-4.83,10.51-1.55,20.34,6.79,28.61,4.19,4.15,8,8.45,9.38,14.14.74,3.1,2.3,7.83-1.51,8.58-4.43.87-1.83-4.66-3.74-6.78-1.69,4.23-1.73,9.32-7.24,12-1.72-3.12.62-5.26,1.25-7.55,2.39-8.57.16-14.63-7.61-19.69a7,7,0,0,0-1.15-.73c-5.78-2.36-9.73-9.57-16.9-7.52-11,3.14-21.87,6.59-27.14,18.24C468.93,713,460.77,729.23,460,747.57a111,111,0,0,0,1.21,18.67c1.38,10.87,8.24,17.36,19.1,21,7.46,2.47,14.94,5,20.7,10.46,4.39,4.13,7,8.89,6.93,15.7-5.07-2.76-6.64-6.91-9-10.35-6.65-9.74-18.45-10.17-28.53-13.48-3.33-1.09-2.78,2.81-2.65,4.66,1.7,24-14.82,39.75-29.54,57.49-1.63-3.61.36-5.38,1.49-7.21,4.63-7.49,9.2-15,14.1-22.35,9.79-14.65,8.8-29.91-.4-43.57-10.66-15.83-11.68-32.37-9.57-49.74.57-4.74-1.12-4.94-4.79-3.43-16.18,6.66-33.24,8.2-50.68,7.55a40,40,0,0,0-4.9.09c-7.47.64-8.42,2.16-5.55,8.63s5.9,12.79,10.32,18.33c12.76,15.94,12.47,33.24,7.16,51.22-.86,2.87-2,5.67-3.06,8.49,0,.11-.39.12-1.47.39-1.79-6.54-1.47-13.1-.41-19.57,2.18-13.16-.18-25.28-8.48-36.31-5.59-7.43-11.86-14.45-16.48-22.47-1.86-3.22-3.92-2.87-6.75-1.14-6.12,3.73-11,8.69-15.89,13.58a18.29,18.29,0,0,1-5.29,4.11C339.9,749.5,345,742,353,737.3s9.07-10.3,7.67-17.84c-.63-3.42-1.59-5.05-5.19-3-13,7.45-27.2,11-42.34,12.15a29.82,29.82,0,0,0-23,13.15c-1.16,1.65-2,4-6,4.3,2.11-9.23,7.39-15.68,16.29-18.83,8.68-3.08,17.68-6,26.82-7.24,17.52-2.45,28.47-11.79,34-26.39,8.24-21.73,16.6-43.53,16.31-67.12-.14-11.6-2.78-22.65-7-33.47-.53-1.36-.54-3.33-2.5-3.51s-2.49,1.71-3.44,2.86c-9.8,11.84-19.92,23.41-32.9,32.48-3.71,2.6-7.82,4.7-11.66,7.15-14.92,9.54-18.24,23.06-9.31,37.78,3.08,5.08,6.4,10,9.24,15.21,3.13,5.7,1.21,10.7-3.16,15.31-2.35-1.62-1.11-3.37-.73-4.86,1.27-5-.09-9.48-3.12-13.49-7.24-9.57-14.73-19-15.68-31.24-.22-2.76-1.88-2.67-3.76-1.28-30.05,22.16-59.57,44.72-72.8,80-2.32,6.18-2.8,12.64-4.36,18.93-1.12,4.56,1.26,8.51,4.51,11.77,4.73,4.75,9.81,9.22,14.66,13.88s7.81,10.21,7.34,16.86c-.14,1.91-.79,4.37-3.39,4.19-2.37-.16-2.15-2.64-2-4.23,1.08-10.72-7.85-15.46-14.88-21.21-8.7-7.1-8.59-6.88-12.73,2.83-6.91,16.18-19.9,27.89-34.23,38.47-5.22,3.86-10.82,7.3-16.78,11.29-1.24-3.62,1.19-4.76,2.58-6.14,7.79-7.73,15.59-15.46,23.58-23a60,60,0,0,0,18.72-34.56c2.58-14.87,3.87-30,8-44.61,1.64-5.87,3.34-11.68,6.45-17,2.61-4.49.8-5.75-4-5.58-11.91.4-23.83.74-35.47-2.26-5.17-1.33-10.48-2.41-15.39-4.32-14.08-5.47-27.33-2.91-40.52,2.62-6.9,2.89-13,7.15-20.73,11.69,7.85-14.15,32.28-26.09,48.14-24,13.61,1.83,27.21,4.07,40.54,7.15,17.91,4.15,34.22-.54,46.09-11.35,19.31-17.58,42.28-30.47,62.75-46.42,9.81-7.64,19.17-15.76,28.81-23.59,4.51-3.65,5.09-8.05,3.14-12.91-3.45-8.61-9.34-15.87-15.33-23a6.63,6.63,0,0,0-5.48-2.49c-13.21.69-25.92-2.64-38.87-4-6.22-.64-12.59-.17-18.89-.14-4.55,0-6.91,2-6.63,6.41.26,4.08.33,8.18.42,12.27.17,7.24-3.54,12.11-11.76,15.22-.42-2.64,1.82-4,3.15-5.41,5.91-6.2,4.7-13.18,2.93-20.2-.92-3.69-3.74-3.42-6.49-1.81-5.52,3.23-11.08,6.41-15.58,10.91-1.5,1.5-2.66,3.59-6,3.82,1.27-5.88,5.8-9.35,9.41-13.27a41.33,41.33,0,0,1,12.73-9c4.13-2,6.08-4.91,7.14-9,.79-3.06.51-4.6-3.33-4.3-7.2.57-14.4,1.2-21.62,1.58-4.35.24-4.43,3.85-6.66,7-3.76-8.75-10.12-5.24-16-3.44-16.11,4.92-28.46,14.42-38.19,27.06-4.09,5.31-7.24,11.29-13.2,15.35,2-13.76,10.23-24.41,20.83-35.58-7.26,2.76-12.16,6.82-19,8.48.15-3.29,2.74-4.2,4.49-5.56,9.86-7.7,19.25-15.67,23.91-27.33a35.74,35.74,0,0,0,1.38-24.08c-5-16.85-5.16-33.61.86-50.24,1.47-4.06.5-5.14-4-4.23a140,140,0,0,1-41,2.46,19.36,19.36,0,0,0-19.16,10.84A123.25,123.25,0,0,0,105,482.56c-2.18,6.5-6.66,11.3-12.18,15.41a11.75,11.75,0,0,1-9.65,2.26c.4-2.84,2.9-3.06,4.45-4.14,5.92-4.14,10.76-9,12.49-15.88,2.13-8.47,4.94-16.66,11.12-23.47,2.55-2.8.53-3.43-2-4.36-35.5-13.32-68.4-10-98.42,12.78-2.78,2.11-5.23,5-9.71,5.32-.91-2.64,1.22-4,2.65-5.45C27,441.79,54.24,429.41,89.46,436.8a353.06,353.06,0,0,0,42.09,6.47c2.27.2,4.53.85,7.25-.1m-21.71-76.43c-2.33,1.07-4.53,3.14-7.58,2.14a2.61,2.61,0,0,1,1.37-2.9m22.05,64.39c14.66,13.55,27.11,14.88,45.37,5.77M95.84,419.58c1.8-3.57,4.65-3.47,6.93-3.69m455.56,50.79c1,1.77,3.31,4.87,0,6.15-2.53,1-3.24-2.38-4.42-4.07-7.23-10.36-9.43-22.2-12.66-33.92m67.16,0c.3,1.55-.15,3.22-2.14,3.51-1.74.25-2.26-1.34-2.68-2.51-1-2.65-1.64-5.39-2.6-8.05M487,436.08c3.69,7.27,8.22,13.27,16.71,16.5,6,2.29,7.84,5.52,7.78,10.69L501.22,457c1.26,4.06,3.67,7.21,5.43,10.63,2.38,4.63,6.28,6.44,11.54,7.12,23.34,3,43.81,11.6,60.58,27.19,6.26,5.82,13.83,8.48,22.78,8.09,7.06-.3,13.81-2,20.68-3.23,3.11-.55,3.85-2.27,3.59-5.18a132.58,132.58,0,0,1,.46-30.32,16.2,16.2,0,0,0-4.63-13.86c-9.26-9.26-8.95-19.29-3.88-30M394.5,478.58c2.23,28.51-2.86,56.25-12.88,83.23a14.52,14.52,0,0,0,.16,11.37c2.73,6.18,5.7,12.27,8.38,18.47,1.23,2.86,3.48,3.81,6.5,4,6.75.37,13.54.45,20.24,1.21,16.68,1.87,27.34-2.72,35.3-16.21,10.08-17.1,24.94-29.43,43.77-37.69,14.69-6.43,14.82-6.21,9.28-20.68-1.3-3.41-2-7.54-6.31-8.81-13.11-3.82-26-8-37.11-16.24,3.1,8.11-.71,16.87,5,24.39,2.45,3.21,1.48,8,.16,12-.3.92-1.28,2.27-2,2.31-1.88.12-1.87-1.56-1.93-2.8-.13-2.58-.07-5.17-.2-7.75-.09-1.76-.5-3.6-2.3-4.47-2.24-1.09-3.24,1-4.64,2-1.95,1.37-3.47,3.57-7.1,3,.69-3.44,3.08-5.37,5-7.4,2.9-3.09,2.63-5.47-.31-8.35-9.14-9-10.68-19.69-8.05-31.32,1-4.46,1.52-9-.54-13.35-3.27-6.9,8.68-23.24-18.5-31.66m-198.9-5.6a76.33,76.33,0,0,1-20.12,12.75c-16.68,7.56-23.84,20.46-24,37-.1,7.73.71,15.47,1.16,23.2.69,11.84,6.07,16.9,19,18,10.15.85,19.91-1.21,29.75-3,13.41-2.51,26.53-1.83,38.55,4.88,4.72,2.64,8.67,2.12,12.87-.74a122.54,122.54,0,0,0,20-17.08c18.85-19.95,29.73-44.08,41.22-67.88,1.58-3.27-.31-4-3.16-3.47-8.8,1.51-17.67.9-26.51.92-3.57,0-5.12,1.1-4.51,4.64a29.91,29.91,0,0,1-1.52,15.94c-2.39,6.24-5.89,11.8-13.74,15.8.92-6,4.48-9.29,6.58-13.17,7.7-14.18,2.84-23.86-13.62-26.37M808.09,529.52c8.4,2.79,13.82-2.63,16.92-11.56a17.27,17.27,0,0,1,1.22-2.33c5.44-10,5.27-19.62-1.27-29.4A77.57,77.57,0,0,1,811.44,446c-.43-9.74-4.13-12.45-14.38-9.77-26.77,7-53.73,10.7-81.47,5.87-4.58-.8-6,.82-4.06,5,5.5,11.87,10.94,23.78,16.11,35.77,1.61,3.75,3.54,5.09,7.84,3.55a23.14,23.14,0,0,1,17,.63c1,.42,2.4.9,2.14,2.18-.35,1.79-2,1.55-3.35,1.21a25.93,25.93,0,0,0-12.44-.37c-3.91.88-5.66,2.83-3.47,6.56,3.46,5.88,6.89,11.54,13.74,15a43.29,43.29,0,0,1,19.65,19.59c2.16,4.37,4.54,5.93,9.61,3.3C786.69,530.21,795.75,528.36,808.09,529.52ZM485.82,605.87,485,604c6.62-5.19,14.37-8.34,23.42-7.77,4.71.3,6-1.19,6.64-5.15,1.49-9,1.42-18,.85-27.07-.71-11.29-1-11.32-12.64-7.6-2.87.91-5.75,1.79-8.59,2.75-16.42,5.55-28.34,15.35-34.63,30.72-3.46,8.46-7.46,16.73-11.07,25.14-4.86,11.33-11.73,21.06-24,26.7-3.31,1.53-4.42,3.75-4,7.34a70.29,70.29,0,0,1-1.34,25.07c-3.36,13.59,2.67,24,12.74,33,7.93,7.05,8.09,6.84,15.12-.63,3.08-3.26,6.77-6.41,7.74-10.62,2.24-9.65,9.45-16.42,15.06-24.14,14.29-19.62,30.83-38,39.39-60.78,1.09-2.89,3.83-6.1.62-9-3-2.72-7-2-10.58-.81C495.08,602.59,490.46,604.26,485.82,605.87ZM745.47,435.19c16.11.37,31.46-3.94,47.13-5.89M686.5,534.18c-12.3-8-16.85-20.81-12.35-33.47,1.11-3.13,1.9-5.61-1.8-7.78-5.51-3.24-10.87-6.7-14.82-11.69-.8-1-2-2.13-3.5-1.78-1.74.42-1.39,2.06-1.36,3.28.26,9.24-.63,18.48,1.26,27.72,4,19.44,6.25,39.2,17.37,56.87,9,14.23,19,27.43,33.33,39,2.54-12.56,10.32-21.85,16.39-31.94,3.73-6.21,7.23-12.56,10.66-18.92a35.9,35.9,0,0,0,4.14-11.63c2.17-14.67-10.44-32-25.9-36.09-7.18-1.88-14.23-4.17-21.33-6.28-6.37-1.89-8.52-.66-9.11,5.53a35.79,35.79,0,0,0,.32,6.44C680.43,520.73,683.44,527.43,686.5,534.18ZM526.78,490.6c-6.7-.81-3.82,3.17-2.84,5.51,9.72,23.17,18,46.66,19.28,71.77.15,3,1.85,5.24,4.08,7.26,3.83,3.47,7.72,6.9,11.4,10.5,3.33,3.27,6.76,4,11.24,1.84,5-2.36,10-5.4,15.37-6,13.32-1.55,19.52-9.33,23.46-19.85a9.4,9.4,0,0,1,.91-1.75c2-3.1.9-5.44-2.32-6.9-7.34-3.34-11.19-9.56-15.37-15.52-4.94-7-9.84-14.13-14.8-21.17C565.36,499.44,547.23,493.15,526.78,490.6Zm220.49,46.25c-.85,15.59-4.14,24.94-13.49,37.79-3.5,4.82-7.45,9.37-11.42,13.88a32.47,32.47,0,0,0-7.86,17c-.61,4,.88,6.59,5.26,7.8a40.82,40.82,0,0,0,22.72.06q14.65-4.27,29.18-9c8.65-2.81,17.22-5.42,26.58-3.07,3.75.94,4.12-.94,3.76-4a60.29,60.29,0,0,1,.31-18.67c3.23-16.51-9.78-28.59-27.87-25.84-1.07.16-1.83,0-2.35-.78C766.57,543.55,755.87,542.62,747.27,536.85ZM412.72,665.22l-.29,0c0-4.3,0-8.6,0-12.9,0-1.71,0-3.53-2.16-4.35-4.62-1.75-18.91,4.2-20.58,8.62-3.15,8.32-6.46,16.59-9.29,25-4.29,12.77-7.32,25.7-6.76,39.27.23,5.33,2.47,6.82,7.64,6.3,5.54-.56,11.13-.76,16.64-1.51,8.26-1.13,16.85-.35,24.81-3.17,4.47-1.59,11.15-2.08,12.14-6.39.84-3.71-5.56-5.57-8.83-8.11-9.24-7.17-15-15.77-14.32-27.31C412,675.51,412.38,670.36,412.72,665.22ZM355,462.92c-1.62,3.11-3.61,6.28-5,9.65-5.5,13.54-14,25.33-24.55,35.85-11.75,11.74-11.18,24.76-5.86,38.55,2,5.33,6,6.68,11.62,4.94a78.06,78.06,0,0,0,29-16.41,11.2,11.2,0,0,0,4.08-6.63C367.64,506.32,373.09,483.52,355,462.92Zm337.95-2.5c-4.79-13.14-15.44-23.81-26.78-34-1.39-1.25-3.42-1-3.69,1-1.34,10.35-8.36,20.21-2.22,31.21,4.69,8.42,8.76,17.14,15.71,24.25,1.68,1.71,4.35,4.89,6.65,1.33C687.1,477.29,692,470.33,692.93,460.42ZM403.07,599.49c-2.84.89-7.15-1.11-8.57,2.48-1.22,3,1.32,6,3.95,7.69,8.5,5.35,13,13.41,17.3,21.47,2.7,5,5.12,5.72,9.77,2,9.86-7.91,14.14-18.42,17.05-29.65.65-2.48-.51-4-3.24-3.5C427.26,602.15,415.24,601.07,403.07,599.49ZM443.3,437.37c2.85,3.54,5.94,7,11.41,8.29M550,745.39a34.06,34.06,0,0,0,28.67-10.09c2.69-2.69,5.69-5.11,8.36-7.81,5.94-6,6.2-10.68,1.53-17.43-2.2-3.16-3.77-4.52-7-.63-8.25,10-19.23,16.75-31.91,21.22a26.74,26.74,0,0,0-12.75,8.7c-1.07,1.38-2.57,2.92-1.92,4.66.79,2.11,3.18,1.26,4.91,1.34C542.71,745.49,545.51,745.39,550,745.39Zm79.89-213.33c-.3-7.67-1.84-12.86-3.18-18.1-.54-2.12-1.87-3-4-2.34-8.76,2.67-17.88,2.7-26.91,3.41-2.2.17-4.62.62-3.24,3.47,5,10.4,9.39,21.21,19.52,28.63,1.58,1.17,4.06,3.32,5.39,1.44C621.76,542.46,629.73,538.31,629.89,532.06ZM301.51,553.81c5.76,1.14,7.6-1,6-6.69a90.16,90.16,0,0,1-2.88-15.27c-.58-5.31-2.65-6.1-7.67-3.68-11.19,5.38-22.72,10-35.25,12.28a16.55,16.55,0,0,0-9.86,5.77c-1,1.15-2.43,2.4-1.31,4,.85,1.21,2.54.89,3.89.82,6.05-.34,12-1.07,18.15-.27C282,552,291.53,552.78,301.51,553.81ZM497.88,507.1c-7.54-18.09-18.33-32.81-29.68-47.22-1.8-2.29-3.19-1.52-5,.21-5.68,5.53-6.34,14.7-1.09,22.77C470.05,495,481.63,502.73,497.88,507.1Zm-299.46,16c7.63,10.54,12.16,13.44,19.45,12.38,13.77-2,27.51-4.19,41.27-6.3,1.34-.21,3.08-.07,3.37-1.64s-1.27-2.19-2.46-2.81c-7.48-3.93-15.53-6.14-24.07-4.64C223.76,522.25,211.83,526.26,198.42,523.13Zm398,170.92c3-25-2.95-48.13-4.92-71.52-.25-2.95-2.87-4.31-5.42-3.87-3.67.63-1.73,3.46-1.16,5.23,3.57,11,4.52,22.23,4.78,33.68A122.89,122.89,0,0,0,596.4,694.05ZM340.86,585.69c5.89-8.65,10.63-16.5,13.94-25,1.18-3,1.44-5.22-3.43-3.82-6,1.72-12.09,3.27-18.18,4.75-3.31.8-4.1,2.3-2.53,5.14C333.94,572.65,337.08,578.65,340.86,585.69Zm280.89-152a19.6,19.6,0,0,0,5.73,22.69M171,550.13c8.59-6.18,18.23-9.71,28.49-11.92,4-.87,5.64-2.22,1.75-5.16s-8-5.82-12-8.69c-1.37-1-3.28-1.92-3.89.25C182.63,534.11,177.13,542.23,171,550.13Zm615.42-9.23c10.64,3.54,20.36,5.43,30.08,7.29,1.8.35,3.81.67,4.44-1.73,1.16-4.44-4-11.05-9.11-11.56C803,534,794.9,535.94,786.39,540.9Zm-85.78-68-2-.13-8.31,15.38c-.8,1.49-.94,2.93.8,3.93,4.55,2.62,9.3,4.8,14.81,5,3.28.13,4.19-1.33,3.09-4C706.25,486.32,703.42,479.59,700.61,472.86ZM398.07,645.36c2.94-1.51,8.52-.14,10.15-4.42,1.4-3.69-1.88-6.84-4.39-9.6-1.57-1.72-3.54-4-6.24-3.27-2.26.65-1.32,3.37-1.78,5.16-.75,2.9-1.27,5.86-1.87,8.8C393.43,644.57,394.64,645.65,398.07,645.36Z" transform="translate(-0.9)"/><rect class="a" y="201.8" width="976.81" height="247.11"/><path d="M654.21,95.86V78.24l-1.32-4.88a95.4,95.4,0,0,0-18-21.36,83.43,83.43,0,0,0-37.81-19.65V0c-70.86,5.13-78.27,60.76-78.27,60.76v.51l-.19.2A102.59,102.59,0,0,0,509.33,52c-11.75-10.5-29.92-21.4-53.84-21.4S413.55,41.54,402,52.06a91.46,91.46,0,0,0-17.5,21.47l-1.24,4.71V95.86h-8.82V242.74H666.3V95.86ZM426.73,212.94a55.8,55.8,0,0,1,28.78-8,57.21,57.21,0,0,1,29.05,8Zm82.13-6.71c-11.71-10.33-29.72-21-53.35-21h0c-23.26,0-40.87,10.32-52.36,20.53V81.05a77.55,77.55,0,0,1,13.14-15.14c9.21-8.08,22-15.5,39.26-15.5,17.71,0,31.18,8,40.64,16.37a81.9,81.9,0,0,1,10.72,11.56c.82,1.07,1.48,2.07,2,2.82Zm72.19-189V165.12s-26.67-4.75-52.15,18.37V80.71h0V69.07S538.47,25.72,581.05,17.2ZM552.27,212.94A56,56,0,0,1,581,205a57.37,57.37,0,0,1,29.1,8Zm82.17-6.71c-11.77-10.37-29.74-21-53.41-21-23.23,0-40.87,10.32-52.39,20.53V205c22.16-30.1,68.43-22.09,68.43-22.09V52.75a65.66,65.66,0,0,1,24.68,14,79.9,79.9,0,0,1,10.63,11.56c.85,1.07,1.52,2.07,2,2.82V206.23Z" transform="translate(-0.9)"/><path class="b" d="M128.9,376.3V422c-10.07,6.64-30,11.48-47.94,11.48C37.66,433.5,5,404.5,5,355.56c0-49.95,34.64-80,77.53-80,16.92,0,33.84,4.23,44.72,9.46V319.3C117.22,299.16,99.9,290.1,82,290.1c-27.79,0-49.75,24.17-49.75,64.45,0,42.49,27.19,64,55.79,64a72.71,72.71,0,0,0,14.7-1.61V376.3c0-9.06-6.64-14.7-24.16-21.75H143C133.93,360.59,128.9,366.63,128.9,376.3Z" transform="translate(-0.9)"/><path class="c" d="M212.68,279c28.19,0,44.1,15.11,44.1,42.9,0,21.75-14.7,34.84-31,39.27L256,409.33c4,6.44,10.27,14.7,17.72,20.74H236.64L201.8,367.24H188.51v41.69c0,9.06,6.24,15.1,17.52,21.14H149.44c10.07-6,14.7-12.08,14.7-21.14V300.17c0-9.06-4.63-15.11-14.7-21.15Zm-24.17,76.13H203c19.33,0,28.6-12.08,28.6-32.83,0-18.52-7.45-30.21-25.38-30.21H188.51Z" transform="translate(-0.9)"/><path class="c" d="M328.28,433.5c-33.23,0-58.81-29.61-58.81-78.95s25.58-78.95,58.81-78.95c33.63,0,59,30.21,59,78.95C387.29,403.49,361.91,433.5,328.28,433.5Zm0-143.4c-19.34,0-33.43,22.76-33.43,64.45,0,41.89,14.09,64.45,33.43,64.45s33.63-22.56,33.63-64.45C361.91,312.86,347.61,290.1,328.28,290.1Z" transform="translate(-0.9)"/><path class="c" d="M448.11,279c-13.7,6-19.94,12.09-19.94,21.15v80.36c0,23.56,14.9,35.45,30.82,35.45,15.5,0,31-11.89,31-36.06V301.78c0-10.07-6.44-15.91-18.73-22.76h45.32c-10.28,6.65-14.91,13.7-14.91,22.76v76.94c0,32.82-18.12,54.78-47.13,54.78-28.8,0-50.75-21.55-50.75-54.18V300.17c0-9.06-4.63-15.11-14.9-21.15Z" transform="translate(-0.9)"/><path class="c" d="M557.67,279,620.1,386l-.4-84.19c0-10.07-7.65-14.9-23.56-22.76h50.15c-10.28,6-15.71,13.7-15.71,22.76v129.1H618.29L544,306.41l.61,101.11c0,10.07,7.65,15.3,23.56,22.55H518c10.07-6,15.51-13.49,15.51-22.55V300.17c0-9.06-4.63-15.11-14.7-21.15Z" transform="translate(-0.9)"/><path class="c" d="M663.8,408.93V300.17c0-9.06-4.63-15.11-14.7-21.15h60.22c35.85,0,58.81,27.19,58.81,75.53s-23,75.52-58.81,75.52H649.1C659.17,424,663.8,418,663.8,408.93ZM704.69,417c25.37,0,38.06-25.17,38.06-62.43s-12.69-62.44-38.06-62.44H688.17V417Z" transform="translate(-0.9)"/><path class="b" d="M844.46,359.58H820.29V417h32.22c19.14,0,27.19-9.46,37.26-30.21v43.3H776c12.49-6,18.13-12.08,18.13-21.14V300.17c0-9.06-5.64-15.11-18.13-21.15H888.77v38.27c-10.07-18.53-18.13-25.18-37.26-25.18H820.29v54.38h24.17c9.46,0,15.1-5,21.15-16.11V375.7C859.56,364.62,853.92,359.58,844.46,359.58Z" transform="translate(-0.9)"/><path class="b" d="M920,408.93V300.17c0-9.06-5.64-15.11-18.12-21.15h69.88c41.89,0,69.08,27.19,69.08,75.53s-27.19,75.52-69.08,75.52H901.86C914.34,424,920,418,920,408.93ZM966.71,417c30.81,0,46.92-25.17,46.92-62.43s-16.11-62.44-46.92-62.44H946.16V417Z" transform="translate(-0.9)"/><rect x="4.13" y="438.39" width="1035.79" height="10.52"/></svg>