<svg xmlns="http://www.w3.org/2000/svg" xmlns:xlink="http://www.w3.org/1999/xlink" viewBox="0 0 1039.92 851.68"><defs><style>.a{fill:#f2f2f2;}.b{fill:url(#a);}.c{fill:url(#b);}.d{fill:url(#c);}.e{fill:url(#d);}.f{fill:url(#e);}</style><linearGradient id="a" x1="210.67" y1="279.02" x2="210.67" y2="430.07" gradientUnits="userSpaceOnUse"><stop offset="0" stop-color="red"/><stop offset="1" stop-color="#c1272d"/></linearGradient><linearGradient id="b" x1="327.48" y1="275.6" x2="327.48" y2="433.5" xlink:href="#a"/><linearGradient id="c" x1="451.84" y1="279.02" x2="451.84" y2="433.5" xlink:href="#a"/><linearGradient id="d" x1="581.24" y1="279.02" x2="581.24" y2="430.88" xlink:href="#a"/><linearGradient id="e" x1="707.71" y1="279.02" x2="707.71" y2="430.07" xlink:href="#a"/></defs><path class="a" d="M292.05,442.84c-9.55,0-19,0-28.51-.83H204.08c-.71.38-1.41.76-2.09,1.15H305.7l0-.22C301.13,442.9,296.59,442.83,292.05,442.84Z"/><path class="a" d="M329.31,442.27c-1.81.19-3.62.34-5.45.42-4.19.21-8.39.27-12.58.27v.2h29.88l.33-.67Z"/><path class="a" d="M446.73,442a18.64,18.64,0,0,0,1.47,1.15h2.16L448.79,442Z"/><path class="a" d="M419.59,442l-.81,1.15H441c-.27-.39-.58-.77-.9-1.15Z"/><path class="a" d="M1025.77,481.45c-21.63-25.15-49-37.74-84.41-33.25-11.23,1.43-22.53,2.43-34.88,3.73,1.71-2.2,3.51-4.26,5.29-6.27h-11c-15,8.73-29.54,6.79-44.12,0H810.51c0,.11,0,.2,0,.3a77.58,77.58,0,0,0,13.53,40.27c6.54,9.78,6.71,19.39,1.27,29.4a16.2,16.2,0,0,0-1.22,2.33c-3.1,8.93-8.52,14.35-16.93,11.56-12.33-1.16-21.39.69-29.7,5-5.07,2.63-7.45,1.07-9.61-3.3a43.27,43.27,0,0,0-19.66-19.59c-6.84-3.47-10.27-9.13-13.73-15-2.2-3.73-.45-5.68,3.47-6.56a25.93,25.93,0,0,1,12.44.37c1.3.34,3,.58,3.35-1.21.25-1.28-1.13-1.76-2.14-2.18a23.14,23.14,0,0,0-17-.63c-4.3,1.54-6.23.2-7.84-3.55-5.17-12-10.61-23.9-16.11-35.77a10.56,10.56,0,0,1-.55-1.43H683.74A56.86,56.86,0,0,1,692,460.42c-.94,9.91-5.83,16.87-10.32,23.82-2.3,3.56-5,.38-6.65-1.33-6.95-7.11-11-15.83-15.72-24.25a19.77,19.77,0,0,1-2.21-13H623.87l2.71,10.72a19,19,0,0,1-6.68-10.72h-6a23.94,23.94,0,0,0,6.87,11.78,16.23,16.23,0,0,1,4.63,13.86,133.15,133.15,0,0,0-.47,30.32c.27,2.91-.47,4.63-3.59,5.18-6.86,1.19-13.61,2.93-20.67,3.23-8.95.39-16.52-2.27-22.79-8.09-16.77-15.59-37.23-24.17-60.57-27.19-5.26-.68-9.16-2.49-11.54-7.12-1.77-3.42-4.17-6.57-5.43-10.63l10.22,6.27c.06-5.17-1.74-8.4-7.78-10.69a27,27,0,0,1-12.41-9.42h-40l3.45,2.5a15.85,15.85,0,0,1-5.61-2.5H441c5.76,8.07.71,17.4,3,22.19,2.05,4.32,1.55,8.89.54,13.35-2.63,11.63-1.1,22.35,8.05,31.32,2.94,2.88,3.21,5.26.31,8.34-1.91,2-4.3,4-5,7.41,3.63.61,5.15-1.59,7.1-3,1.4-1,2.4-3.06,4.63-2,1.81.87,2.22,2.71,2.31,4.47.13,2.58.07,5.17.2,7.75.06,1.24,0,2.92,1.93,2.8.75,0,1.73-1.39,2-2.31,1.32-4,2.29-8.75-.17-12-5.74-7.52-1.93-16.28-5-24.39,11.1,8.29,24,12.42,37.11,16.24,4.34,1.27,5,5.4,6.31,8.81,5.54,14.47,5.41,14.25-9.28,20.68-18.84,8.26-33.69,20.59-43.78,37.69-8,13.49-18.61,18.08-35.3,16.21-6.69-.76-13.48-.84-20.23-1.21-3-.16-5.27-1.11-6.51-4-2.67-6.2-5.64-12.29-8.38-18.47a14.56,14.56,0,0,1-.16-11.37c10-27,15.12-54.72,12.88-83.23l25.19-35.42h-49c-2.2.24-4.4.31-6.46.34-3.06,0-6.11-.14-9.15-.34h-13C331,464.31,320.53,485.32,303.8,503a122.19,122.19,0,0,1-20,17.08c-4.2,2.86-8.14,3.38-12.86.74-12-6.71-25.14-7.39-38.55-4.88-9.84,1.84-19.61,3.9-29.76,3-13-1.08-18.35-6.14-19-18-.45-7.73-1.26-15.47-1.17-23.2.19-15,6.09-26.92,19.55-34.68H137.9c-2.72.95-5,.3-7.26.1q-5.83-.51-11.63-1.26H34.87c-11.59,5.27-22.17,13.17-32,23-1.42,1.42-3.55,2.81-2.64,5.45,4.47-.3,6.92-3.21,9.71-5.32,30-22.82,62.92-26.1,98.42-12.78,2.48.93,4.49,1.56,2,4.36-6.19,6.81-9,15-11.12,23.47-1.73,6.9-6.57,11.74-12.49,15.88-1.55,1.08-4,1.3-4.45,4.14A11.75,11.75,0,0,0,91.89,498c5.52-4.11,10-8.91,12.18-15.41a123.25,123.25,0,0,1,6.65-16.32,19.34,19.34,0,0,1,19.15-10.84,140.08,140.08,0,0,0,41-2.46c4.53-.91,5.51.17,4,4.23-6,16.63-5.83,33.39-.86,50.24a35.8,35.8,0,0,1-1.38,24.08c-4.66,11.66-14,19.63-23.91,27.33-1.75,1.36-4.34,2.27-4.49,5.56,6.83-1.66,11.72-5.72,19-8.48-10.6,11.17-18.86,21.82-20.84,35.58,6-4.06,9.12-10,13.21-15.35,9.73-12.64,22.08-22.14,38.18-27.06,5.91-1.8,12.28-5.31,16,3.44,2.23-3.1,2.31-6.71,6.66-7,7.21-.38,14.42-1,21.62-1.58,3.83-.3,4.12,1.24,3.32,4.3-1,4-3,7-7.13,9a41.49,41.49,0,0,0-12.74,9c-3.61,3.92-8.13,7.39-9.4,13.27,3.36-.23,4.52-2.32,6-3.82,4.5-4.5,10.06-7.68,15.58-10.91,2.75-1.61,5.57-1.88,6.49,1.81,1.77,7,3,14-2.93,20.2-1.33,1.4-3.57,2.77-3.15,5.41,8.22-3.11,11.92-8,11.76-15.22-.09-4.09-.17-8.19-.42-12.27-.28-4.42,2.07-6.39,6.63-6.41,6.3,0,12.66-.5,18.89.14,13,1.33,25.66,4.66,38.87,4a6.6,6.6,0,0,1,5.47,2.49c6,7.17,11.89,14.43,15.34,23,2,4.86,1.37,9.26-3.14,12.91-9.64,7.83-19,15.95-28.81,23.59-20.48,16-43.45,28.84-62.76,46.42-11.87,10.81-28.17,15.5-46.08,11.35-13.33-3.08-26.94-5.32-40.54-7.15-15.86-2.14-40.29,9.8-48.14,24,7.77-4.54,13.82-8.8,20.73-11.69,13.19-5.53,26.44-8.09,40.52-2.62,4.91,1.91,10.22,3,15.38,4.32,11.65,3,23.57,2.66,35.47,2.26,4.84-.17,6.65,1.09,4,5.58-3.11,5.35-4.81,11.16-6.46,17-4.1,14.66-5.39,29.74-8,44.61A60,60,0,0,1,184.22,793c-8,7.56-15.78,15.29-23.57,23-1.39,1.38-3.82,2.52-2.59,6.14,6-4,11.57-7.43,16.79-11.29,14.32-10.58,27.32-22.29,34.22-38.47,4.15-9.71,4-9.93,12.74-2.83,7,5.75,16,10.49,14.88,21.21-.16,1.59-.39,4.07,2,4.23,2.59.18,3.25-2.28,3.38-4.19.48-6.65-2.43-12.17-7.33-16.86s-9.93-9.13-14.67-13.88c-3.24-3.26-5.62-7.21-4.5-11.77,1.55-6.29,2-12.75,4.36-18.93,13.22-35.26,42.74-57.82,72.8-80,1.88-1.39,3.54-1.48,3.75,1.28.95,12.26,8.44,21.67,15.68,31.24,3,4,4.4,8.5,3.13,13.49-.38,1.49-1.62,3.24.72,4.86,4.37-4.61,6.29-9.61,3.17-15.31-2.84-5.18-6.17-10.13-9.24-15.21-8.93-14.72-5.61-28.24,9.31-37.78,3.84-2.45,7.94-4.55,11.66-7.15,13-9.07,23.1-20.64,32.89-32.48,1-1.15,1.55-3,3.44-2.86s2,2.15,2.51,3.51c4.21,10.82,6.84,21.87,7,33.47.28,23.59-8.07,45.39-16.31,67.12-5.54,14.6-16.49,23.94-34,26.39-9.14,1.28-18.14,4.16-26.82,7.24-8.9,3.15-14.18,9.6-16.29,18.83,4-.31,4.81-2.65,6-4.3a29.8,29.8,0,0,1,23-13.15c15.15-1.17,29.36-4.7,42.35-12.15,3.6-2.07,4.55-.44,5.19,3,1.39,7.54.28,13.17-7.68,17.84s-13.11,12.2-15.42,21a18.2,18.2,0,0,0,5.3-4.11c4.92-4.89,9.76-9.85,15.88-13.58,2.84-1.73,4.9-2.08,6.76,1.14,4.62,8,10.88,15,16.48,22.47,8.3,11,10.65,23.15,8.48,36.31-1.07,6.47-1.39,13,.4,19.57,1.09-.27,1.44-.28,1.48-.39,1-2.82,2.2-5.62,3.05-8.49,5.32-18,5.6-35.28-7.15-51.22-4.43-5.54-7.48-11.93-10.32-18.33s-1.92-8,5.54-8.63a40.07,40.07,0,0,1,4.9-.09c17.45.65,34.5-.89,50.69-7.55,3.67-1.51,5.36-1.31,4.79,3.43-2.11,17.37-1.1,33.91,9.56,49.74,9.21,13.66,10.2,28.92.41,43.57-4.9,7.34-9.48,14.86-14.1,22.35-1.13,1.83-3.12,3.6-1.49,7.21,14.72-17.74,31.23-33.52,29.54-57.49-.13-1.85-.69-5.75,2.65-4.66,10.08,3.31,21.87,3.74,28.53,13.48,2.34,3.44,3.9,7.59,9,10.35,0-6.81-2.54-11.57-6.93-15.7-5.76-5.42-13.25-8-20.71-10.46-10.85-3.6-17.71-10.09-19.09-21a112.07,112.07,0,0,1-1.22-18.67c.78-18.34,8.94-34.53,16.42-51.08,5.26-11.65,16.1-15.1,27.13-18.24,7.18-2,11.13,5.16,16.9,7.52a7.05,7.05,0,0,1,1.16.73c7.77,5.06,10,11.12,7.61,19.69-.64,2.29-3,4.43-1.25,7.55,5.51-2.7,5.55-7.79,7.23-12,1.92,2.12-.69,7.65,3.75,6.78,3.8-.75,2.25-5.48,1.51-8.58-1.36-5.69-5.2-10-9.39-14.14-8.33-8.27-11.62-18.1-6.78-28.61,5-10.86,9.46-22.06,16.54-32a101.69,101.69,0,0,1,11.24-14c3.29-3.25,5.08-2.48,7.29.93a92.66,92.66,0,0,1,12.93,29.15c3.26,13.72,4.34,27.7,6.21,41.54,2,14.89-2,28.35-18.66,35.69-5.46,2.4-10.48,5.65-15.67,8.54-5.47,3-10.49,6.66-13.63,11.85-2.66,4.4-6.11,6.31-11.68,6.68-14,.94-27.46,10.47-30.7,21.18,2.71-.24,4.06-2.11,5.71-3.45,5.13-4.12,10.45-8,16.82-10.34,9.25-3.44,12.55-2.55,17.71,5.14,2.71-6.52,8.19-6,13.93-5.22,2.26.3,4.63-.15,7-.12,7.27.09,14.33-2,21.9-2-9.59,10.84-21.84,19.56-25.95,33.45-4,13.39-2.84,26.85.35,40.3,4.19-6.82,5.22-14.23,6.1-21.57,2.05-17.22,6.93-33,23.07-43.92,10.07-6.8,18.82-14.85,25.15-24.89,2.14-3.39,4.42-3.76,8-1.71,8.1,4.7,16.53,8.93,24.51,13.8,11.29,6.9,19.48,15.88,21.48,28.92.49,3.21.74,7.13,4.41,9.53.51-.77.88-1.1,1-1.48a14.68,14.68,0,0,0,.31-2.56c.46-15.49-7-27.34-19.81-36.73-7.48-5.51-15.12-10.84-22.53-16.43-4.83-3.64-8.63-8-8-14.3.17-1.68.2-3.81,2.19-4.39,1.74-.51,2.7,1.41,3.79,2.42A90,90,0,0,0,655.9,732.8c15.77,3.64,24.53,13.18,29.38,26.77.74,2.08.13,4.83,2.84,6.15,1.72-.84,1.38-2.26,1.4-3.46.18-14.48-7.34-24.57-21-31-11.25-5.25-22.47-10.57-33.93-15.39-6.36-2.67-10.28-7-13.67-12.36-11.93-18.9-7.52-40.18-10.92-60.37,4.11,4.37,5.93,9.63,8.09,14.76,6.93,16.47,21.92,26.32,41.31,26.29-3.49-3.55-7.22-4.25-10.57-5.47-11.45-4.18-20.45-10.58-23.16-22.35-2.26-9.85-6.83-18.74-12.28-27.34-2-3.18-4-6.48-3.67-10.3,1.75-18.92,9.44-35.93,20.62-51.58,3.65-5.11,10.14-4.49,13,1,11.4,22.3,29.61,39,50.57,53.55,12.9,8.94,23.62,19.49,30.15,33.36,4.26,9.07,5.68,18.13,1.6,27.59-4.24,9.81-7.57,20-12.63,29.43-4.51,8.4-5.11,16.92-4.5,25.77.59,8.53,11.39,23.63,18.36,26.21.54-1.19-.28-2.07-.86-3-11.34-17.37-14.14-34.88-1.16-52.7a4,4,0,0,0,.3-.58c7.29-14.06,13.92-28.3,13.51-44.37,0-1.24-.25-2.87,1.42-3.29,1.48-.37,2.47.93,3.5,1.79,25.56,21,42.6,45.91,43.63,78.72.42,13.06,2.14,26,9.77,37.91,8.87,13.87,21.76,23.46,35.67,32.41a258.56,258.56,0,0,0-19.33-23.5c-12-12.92-18.18-27.18-15-44.59,1-5.2,2.41-5.84,6.89-3.63,7.11,3.51,14.66,5.69,22.8,5.37a29.39,29.39,0,0,1,22.51,8.59c2.07,2,3.73,4.86,8.25,5.39-2.89-10.19-10.38-14.7-19.75-17-8.34-2-16.86-3.41-25.27-5.17-8.18-1.7-13-6.28-14.1-14.13-1.32-9.68-4.68-18.88-8-28.08-.55-1.52-2.15-3-.78-4.76,34,6.32,37.43,6.3,73.91-.17,1.83-.33,3.7-.41,5.56-.58,22.77-2.11,40.67,7,56.48,20.93,1.4,1.23,2.87,3.89,5,2.33s-.23-3.5-1.44-4.9c-14.72-17.14-33-27.9-57.63-26.55-11.63.63-23.3,1.42-34.78,3.12-22.08,3.28-41-2.33-57.8-15.5-17.79-13.94-34-29.57-52.68-42.54a1.93,1.93,0,0,1-.76-2.77c17-.8,32.83-6,47.73-14.09,3.83-2.07,8.39-2.47,12.88-2.67,9.62-.43,18.37,2.39,27,5.78,1.69.66,4,2.75,5.39.31,1-1.71-1.52-2.93-3-3.86-10.15-6.48-12.77-15.22-10.05-26.06a37.59,37.59,0,0,0,.12-18.61c-1.24-4.82,1-5.86,5.4-5.34,6.71.79,13.39,2,20.13,2.37,20.82,1.21,37.21,10,50.87,24.12,7.41,7.66,12.68,16.47,17.86,25.42.71,1.22,1.51,3.14,3.58,2.15,1.42-.68,1-2.28.52-3.5C897.28,590.81,889.37,572.81,870,562c-10.83-6-22.77-8.79-34.93-10.95-5.19-.92-9.08-2.63-11-7.66-1.75-4.65-.62-6,4.6-5,8,1.44,16.14,2.52,24.29.46,6.36-1.6,11.58-4.53,14.33-10.38a61.42,61.42,0,0,0-9.44,3.93c-9.41,4.53-18.85,3.93-28.39.3-3.63-1.38-5.23-2.94-3.17-6.78,3.33-6.16,6.21-12.54,9.1-18.9,1.57-3.44,3.4-4.23,6.72-1.65,11.34,8.83,24.34,15.17,37.56,21.17a36.42,36.42,0,0,1,15.27,13,62,62,0,0,1,11,33.61c.07,2.16-.68,4.6,2.17,6.08,5.2-23.76,1.42-44.77-23.61-59.67,8.77-3.15,16.21-6.17,23.89-8.5s15.7-.6,25.33,1.24c-5.34-5.76-10.49-7.21-16.2-7.25-6.18-.05-11.86,2.08-17.63,3.81-8.9,2.68-18,5.76-27.34,2.79-24.07-7.66-42.52-31.79-43.17-55.55-.1-3.77,1-4.71,4.85-3.06a141.07,141.07,0,0,0,19.55,7c26.05,7,52.09,5.32,78.31.81,9.56-1.65,18.87-5.38,28.88-4.23,23.25,2.67,43.32,11.46,59.93,26.84,2,1.87,3.91,4.16,7.46,4.11,0-1,.22-1.73,0-2.21A21,21,0,0,0,1025.77,481.45Zm-564.52,1.41c-5.26-8.07-4.59-17.24,1.08-22.77,1.77-1.73,3.17-2.5,5-.21C478.65,474.29,489.44,489,497,507.1,480.73,502.73,469.15,495,461.25,482.86Zm-262.7,55.35c-10.26,2.21-19.9,5.74-28.48,11.92,6.16-7.9,11.65-16,14.32-25.52.6-2.17,2.52-1.23,3.88-.25,4,2.87,8.1,5.72,12,8.69S202.58,537.34,198.55,538.21Zm18.42-2.7c-7.29,1.06-11.82-1.84-19.45-12.38,13.41,3.13,25.34-.88,37.56-3,8.54-1.5,16.59.71,24.07,4.64,1.18.62,2.74,1.31,2.46,2.81s-2,1.43-3.37,1.64C244.48,531.32,230.74,533.51,217,535.51Zm83.64,18.3c-10-1-19.52-1.81-29-3-6.11-.8-12.1-.07-18.14.27-1.36.07-3,.39-3.89-.82-1.13-1.59.34-2.84,1.3-4a16.6,16.6,0,0,1,9.87-5.77c12.53-2.24,24.05-6.9,35.24-12.28,5-2.42,7.1-1.63,7.67,3.68a91.18,91.18,0,0,0,2.89,15.27C308.21,552.84,306.37,555,300.61,553.81Zm53.29,6.84c-3.32,8.54-8,16.39-13.95,25-3.77-7-6.92-13-10.19-19-1.57-2.84-.79-4.34,2.53-5.14,6.09-1.48,12.16-3,18.18-4.75C355.33,555.43,355.08,557.6,353.9,560.65Zm9.49-31.78a11.24,11.24,0,0,1-4.07,6.63,78.14,78.14,0,0,1-29,16.41c-5.64,1.74-9.57.39-11.63-4.94-5.32-13.79-5.88-26.81,5.87-38.55,10.53-10.52,19.05-22.31,24.54-35.85,1.37-3.37,3.35-6.54,5-9.65C372.19,483.52,366.73,506.32,363.39,528.87Zm30.2,73.1c1.43-3.59,5.73-1.59,8.58-2.48,12.17,1.58,24.18,2.66,36.26.48,2.73-.5,3.88,1,3.24,3.5-2.92,11.23-7.2,21.74-17.05,29.65-4.65,3.73-7.07,3-9.77-2-4.32-8.06-8.8-16.12-17.3-21.47C394.92,608,392.38,605,393.59,602ZM393,642c.6-2.94,1.12-5.9,1.87-8.8.46-1.79-.48-4.51,1.78-5.16,2.7-.77,4.67,1.55,6.24,3.27,2.5,2.76,5.79,5.91,4.39,9.6-1.63,4.28-7.22,2.91-10.15,4.42C393.74,645.65,392.52,644.57,393,642Zm40.91,74c-1,4.31-7.67,4.8-12.13,6.39-8,2.82-16.55,2-24.82,3.17-5.5.75-11.09,1-16.64,1.51-5.16.52-7.41-1-7.63-6.3-.57-13.57,2.47-26.5,6.76-39.27,2.83-8.41,6.14-16.68,9.28-25,1.67-4.42,16-10.37,20.59-8.62,2.17.82,2.14,2.64,2.16,4.35,0,4.3,0,8.6,0,12.9l.28,0c-.33,5.14-.71,10.29-1,15.43-.67,11.54,5.08,20.14,14.32,27.31C428.4,710.5,434.8,712.36,434,716.07Zm80.22-125c-.65,4-1.92,5.45-6.64,5.15-9-.57-16.79,2.58-23.41,7.77.26.64.53,1.27.8,1.91,4.64-1.61,9.26-3.28,13.94-4.79,3.62-1.17,7.56-1.91,10.58.81,3.21,2.9.47,6.11-.62,9-8.57,22.77-25.1,41.16-39.39,60.78-5.62,7.72-12.83,14.49-15.06,24.14-1,4.21-4.67,7.36-7.74,10.62-7,7.47-7.19,7.68-15.12.63-10.08-9-16.1-19.38-12.74-33A70.52,70.52,0,0,0,420.11,649c-.41-3.59.7-5.81,4-7.34,12.25-5.64,19.12-15.37,24-26.7,3.61-8.41,7.61-16.68,11.07-25.14,6.28-15.37,18.2-25.17,34.62-30.72,2.85-1,5.73-1.84,8.59-2.75,11.67-3.72,11.93-3.69,12.65,7.6C515.59,573,515.67,582,514.17,591Zm72,136.45c-2.68,2.7-5.67,5.12-8.36,7.81a34.06,34.06,0,0,1-28.67,10.09c-4.49,0-7.3.1-10.08,0-1.74-.08-4.13.77-4.91-1.34-.65-1.74.84-3.28,1.91-4.66a26.84,26.84,0,0,1,12.75-8.7c12.69-4.47,23.67-11.19,31.92-21.22,3.19-3.89,4.77-2.53,7,.63C592.33,716.81,592.07,721.53,586.13,727.49Zm9.37-33.44a122.57,122.57,0,0,1-6.72-36.48c-.27-11.45-1.21-22.67-4.78-33.68-.57-1.77-2.51-4.6,1.16-5.23,2.55-.44,5.17.92,5.42,3.87C592.55,645.92,598.49,669.08,595.5,694.05Zm13.28-134.2a9.44,9.44,0,0,0-.92,1.75c-3.93,10.52-10.13,18.3-23.45,19.85-5.33.63-10.41,3.67-15.38,6-4.47,2.13-7.9,1.43-11.24-1.84-3.68-3.6-7.57-7-11.4-10.5-2.22-2-3.92-4.25-4.07-7.26-1.26-25.11-9.56-48.6-19.28-71.77-1-2.34-3.87-6.32,2.83-5.51,20.46,2.55,38.59,8.84,50.42,25.66,5,7,9.86,14.12,14.8,21.17,4.18,6,8,12.18,15.37,15.52C609.68,554.41,610.79,556.75,608.78,559.85Zm7.75-11.28c-1.33,1.88-3.81-.27-5.39-1.44-10.13-7.42-14.5-18.23-19.53-28.63-1.38-2.85,1-3.3,3.24-3.47,9-.71,18.16-.74,26.92-3.41,2.16-.66,3.5.22,4,2.34,1.34,5.24,2.88,10.43,3.18,18.1C628.83,538.31,620.86,542.46,616.53,548.57Zm72.89-60.46q4.14-7.69,8.3-15.38l2,.13c2.81,6.73,5.65,13.46,8.42,20.2,1.1,2.67.19,4.13-3.09,4-5.52-.22-10.26-2.4-14.81-5C688.48,491,688.61,489.6,689.42,488.11Zm14.3,118.18c-14.29-11.53-24.38-24.73-33.33-39C659.28,549.66,657,529.9,653,510.46c-1.89-9.24-1-18.48-1.25-27.72,0-1.22-.38-2.86,1.36-3.28,1.48-.35,2.69.76,3.5,1.78,4,5,9.31,8.45,14.82,11.69,3.69,2.17,2.91,4.65,1.8,7.78-4.5,12.66,0,25.49,12.35,33.47-3.06-6.75-6.07-13.45-6.7-20.78a36.74,36.74,0,0,1-.33-6.44c.6-6.19,2.75-7.42,9.11-5.53,7.11,2.11,14.16,4.4,21.34,6.28,15.46,4,28.07,21.42,25.9,36.09a35.92,35.92,0,0,1-4.15,11.63c-3.42,6.36-6.92,12.71-10.66,18.92C714.05,584.44,706.27,593.73,703.72,606.29Zm97.68-27.64a60,60,0,0,0-.3,18.67c.35,3,0,4.91-3.76,4-9.36-2.35-17.93.26-26.58,3.07q-14.52,4.73-29.19,9a40.79,40.79,0,0,1-22.71-.06c-4.38-1.21-5.87-3.77-5.26-7.8a32.39,32.39,0,0,1,7.86-17c4-4.51,7.92-9.06,11.42-13.88,9.34-12.85,12.64-22.2,13.49-37.79,8.59,5.77,19.29,6.7,24.82,15.18.52.81,1.28.94,2.35.78C791.62,550.06,804.64,562.14,801.4,578.65ZM820,546.46c-.63,2.4-2.64,2.08-4.44,1.73-9.72-1.86-19.44-3.75-30.09-7.29,8.52-5,16.59-6.87,25.42-6C816,535.41,821.17,542,820,546.46Z"/><path class="a" d="M530.7,442H489.54c.27.39.53.78.81,1.15h42.09A18.69,18.69,0,0,1,530.7,442Z"/><path class="a" d="M546.18,445.66h-2.92c2.2,8.06,4.79,15.93,9.79,23.1,1.18,1.69,1.89,5.07,4.42,4.07,3.27-1.28,1-4.38,0-6.15Z"/><path class="a" d="M302.16,455.81c-2.11,3.88-5.66,7.16-6.59,13.17,7.85-4,11.35-9.56,13.75-15.8a29.5,29.5,0,0,0,2-10H305.7C305.91,446.81,304.74,451.05,302.16,455.81Z"/><path class="a" d="M653.31,95.86V78.24L652,73.36A95.62,95.62,0,0,0,634,52a83.33,83.33,0,0,0-37.81-19.65V0c-70.85,5.13-78.26,60.76-78.26,60.76v.51a1.84,1.84,0,0,0-.19.2A102.59,102.59,0,0,0,508.43,52c-11.75-10.5-29.93-21.4-53.85-21.4s-41.93,10.94-53.45,21.46a91.78,91.78,0,0,0-17.5,21.47l-1.24,4.71V95.86h-8.81V242.74H665.4V95.86ZM425.82,212.94a55.86,55.86,0,0,1,28.78-8,57.18,57.18,0,0,1,29,8ZM508,206.23c-11.72-10.33-29.73-21-53.36-21h0c-23.25,0-40.86,10.32-52.35,20.53V81.05a77.2,77.2,0,0,1,13.14-15.14c9.21-8.08,22-15.5,39.25-15.5,17.71,0,31.19,8,40.65,16.37A81.15,81.15,0,0,1,506,78.34c.83,1.07,1.49,2.07,2,2.82Zm72.19-189V165.12s-26.67-4.75-52.15,18.37V80.71h0V69.07S537.56,25.72,580.15,17.2ZM551.37,212.94a56,56,0,0,1,28.76-8,57.4,57.4,0,0,1,29.1,8Zm82.17-6.71c-11.77-10.37-29.74-21-53.41-21-23.24,0-40.87,10.32-52.39,20.53V205c22.15-30.1,68.42-22.09,68.42-22.09V52.75a65.58,65.58,0,0,1,24.68,14,79.47,79.47,0,0,1,10.64,11.56c.85,1.07,1.52,2.07,2,2.82V206.23Z"/><path class="a" d="M128,376.3V422c-10.07,6.64-30,11.48-47.93,11.48-43.3,0-75.93-29-75.93-77.95,0-49.94,34.64-79.95,77.54-79.95,16.92,0,33.84,4.23,44.71,9.46V319.3C116.31,299.16,99,290.1,81.07,290.1c-27.8,0-49.75,24.17-49.75,64.45,0,42.49,27.19,64,55.79,64a72.79,72.79,0,0,0,14.7-1.61V376.3c0-9.06-6.64-14.7-24.17-21.75h64.45C133,360.59,128,366.63,128,376.3Z"/><path class="b" d="M211.77,279c28.2,0,44.11,15.11,44.11,42.9,0,21.75-14.7,34.84-31,39.27l30.21,48.14c4,6.44,10.28,14.7,17.73,20.74H235.74L200.9,367.24H187.6v41.69c0,9.06,6.25,15.1,17.53,21.14h-56.6c10.07-6,14.71-12.08,14.71-21.14V300.17c0-9.06-4.64-15.11-14.71-21.15ZM187.6,355.15h14.51c19.33,0,28.59-12.08,28.59-32.83,0-18.53-7.45-30.21-25.37-30.21H187.6Z"/><path class="c" d="M327.38,433.5c-33.24,0-58.81-29.61-58.81-78.95s25.57-78.95,58.81-78.95c33.63,0,59,30.21,59,78.95C386.39,403.49,361,433.5,327.38,433.5Zm0-143.4c-19.34,0-33.44,22.76-33.44,64.45,0,41.89,14.1,64.45,33.44,64.45S361,396.44,361,354.55C361,312.86,346.71,290.1,327.38,290.1Z"/><path class="d" d="M447.21,279c-13.7,6-19.94,12.09-19.94,21.15v80.36c0,23.56,14.9,35.44,30.81,35.44,15.51,0,31-11.88,31-36.05V301.78c0-10.07-6.45-15.91-18.73-22.76h45.31c-10.27,6.65-14.9,13.7-14.9,22.76v76.94c0,32.82-18.13,54.78-47.13,54.78-28.8,0-50.75-21.55-50.75-54.18V300.17c0-9.06-4.63-15.11-14.9-21.15Z"/><path class="e" d="M556.77,279,619.2,386l-.4-84.19c0-10.07-7.66-14.9-23.57-22.76h50.15c-10.27,6-15.71,13.7-15.71,22.76v129.1H617.39L543.07,306.41l.6,101.11c0,10.07,7.66,15.3,23.57,22.55H517.09c10.07-6,15.51-13.49,15.51-22.55V300.17c0-9.06-4.63-15.11-14.7-21.15Z"/><path class="f" d="M662.9,408.93V300.17c0-9.06-4.63-15.11-14.7-21.15h60.22c35.85,0,58.81,27.19,58.81,75.53s-23,75.52-58.81,75.52H648.2C658.27,424,662.9,418,662.9,408.93ZM703.78,417c25.38,0,38.07-25.17,38.07-62.43s-12.69-62.44-38.07-62.44H687.27V417Z"/><path class="a" d="M843.56,359.58H819.39V417h32.22c19.13,0,27.19-9.46,37.26-30.21v43.3H775.08c12.49-6,18.13-12.08,18.13-21.14V300.17c0-9.06-5.64-15.11-18.13-21.15H887.86v38.27c-10.07-18.53-18.12-25.18-37.26-25.18H819.39v54.38h24.17c9.46,0,15.1-5,21.14-16.11v45.31C858.66,364.62,853,359.58,843.56,359.58Z"/><path class="a" d="M919.08,408.93V300.17c0-9.06-5.64-15.11-18.13-21.15h69.89c41.89,0,69.08,27.19,69.08,75.53s-27.19,75.52-69.08,75.52H901C913.44,424,919.08,418,919.08,408.93ZM965.8,417c30.82,0,46.93-25.17,46.93-62.43s-16.11-62.44-46.93-62.44H945.26V417Z"/><rect class="a" x="4.13" y="438.39" width="1035.79" height="10.52"/></svg>