<svg xmlns="http://www.w3.org/2000/svg" xmlns:xlink="http://www.w3.org/1999/xlink" viewBox="0 0 1039.92 851.68"><defs><style>.a{fill:#231f20;}.b{fill:url(#a);}.c{fill:url(#b);}.d{fill:url(#c);}.e{fill:url(#d);}.f{fill:url(#e);}</style><linearGradient id="a" x1="211.57" y1="279.02" x2="211.57" y2="430.07" gradientUnits="userSpaceOnUse"><stop offset="0" stop-color="red"/><stop offset="1" stop-color="#c1272d"/></linearGradient><linearGradient id="b" x1="328.38" y1="275.6" x2="328.38" y2="433.5" xlink:href="#a"/><linearGradient id="c" x1="452.74" y1="279.02" x2="452.74" y2="433.5" xlink:href="#a"/><linearGradient id="d" x1="582.14" y1="279.02" x2="582.14" y2="430.88" xlink:href="#a"/><linearGradient id="e" x1="708.61" y1="279.02" x2="708.61" y2="430.07" xlink:href="#a"/></defs><path d="M293,442.84c-9.55,0-19,0-28.52-.83H205c-.71.38-1.41.76-2.09,1.15H306.6a1.46,1.46,0,0,0,0-.22C302,442.9,297.49,442.83,293,442.84Z" transform="translate(-0.9)"/><path d="M330.21,442.27c-1.8.19-3.62.34-5.45.42-4.19.21-8.38.27-12.58.27a1.34,1.34,0,0,1,0,.2h29.88l.33-.67Z" transform="translate(-0.9)"/><path d="M447.64,442a18.47,18.47,0,0,0,1.46,1.15h2.16L449.69,442Z" transform="translate(-0.9)"/><path d="M420.5,442l-.82,1.15h22.25c-.27-.39-.58-.77-.9-1.15Z" transform="translate(-0.9)"/><path d="M1026.68,481.45c-21.64-25.15-49-37.74-84.41-33.25-11.24,1.43-22.54,2.43-34.89,3.73,1.72-2.2,3.52-4.26,5.29-6.27h-11c-15,8.73-29.54,6.79-44.12,0H811.42a2.83,2.83,0,0,0,0,.3A77.57,77.57,0,0,0,825,486.23c6.54,9.78,6.71,19.39,1.27,29.4A17.27,17.27,0,0,0,825,518c-3.1,8.93-8.52,14.35-16.92,11.56-12.34-1.16-21.4.69-29.71,5-5.07,2.63-7.45,1.07-9.61-3.3a43.29,43.29,0,0,0-19.65-19.59c-6.85-3.47-10.28-9.13-13.74-15-2.19-3.73-.44-5.68,3.47-6.56a25.93,25.93,0,0,1,12.44.37c1.3.34,3,.58,3.35-1.21.26-1.28-1.13-1.76-2.14-2.18a23.14,23.14,0,0,0-17-.63c-4.3,1.54-6.23.2-7.84-3.55-5.17-12-10.61-23.9-16.11-35.77a12.09,12.09,0,0,1-.55-1.43H684.64a57.19,57.19,0,0,1,8.29,14.76c-.95,9.91-5.83,16.87-10.33,23.82-2.3,3.56-5,.38-6.65-1.33-7-7.11-11-15.83-15.71-24.25a19.72,19.72,0,0,1-2.22-13H624.78l2.7,10.72a19,19,0,0,1-6.68-10.72h-6a24,24,0,0,0,6.87,11.78,16.2,16.2,0,0,1,4.63,13.86,132.58,132.58,0,0,0-.46,30.32c.26,2.91-.48,4.63-3.59,5.18-6.87,1.19-13.62,2.93-20.68,3.23-8.95.39-16.52-2.27-22.78-8.09-16.77-15.59-37.24-24.17-60.58-27.19-5.26-.68-9.16-2.49-11.54-7.12-1.76-3.42-4.17-6.57-5.43-10.63l10.22,6.27c.06-5.17-1.73-8.4-7.78-10.69a27,27,0,0,1-12.4-9.42h-40l3.45,2.5a15.85,15.85,0,0,1-5.61-2.5h-7.17c5.76,8.07.72,17.4,3,22.19,2.06,4.32,1.55,8.89.54,13.35-2.63,11.63-1.09,22.35,8.05,31.32,2.94,2.88,3.21,5.26.31,8.34-1.91,2-4.3,4-5,7.41,3.63.61,5.15-1.59,7.1-3,1.4-1,2.4-3.06,4.64-2,1.8.87,2.21,2.71,2.3,4.47.13,2.58.07,5.17.2,7.75.06,1.24.05,2.92,1.93,2.8.75,0,1.73-1.39,2-2.31,1.32-4,2.29-8.75-.16-12-5.74-7.52-1.93-16.28-5-24.39,11.1,8.29,24,12.42,37.11,16.24,4.34,1.27,5,5.4,6.31,8.81,5.54,14.47,5.41,14.25-9.28,20.68-18.83,8.26-33.69,20.59-43.77,37.69-8,13.49-18.62,18.08-35.3,16.21-6.7-.76-13.49-.84-20.24-1.21-3-.16-5.27-1.11-6.5-4-2.68-6.2-5.65-12.29-8.38-18.47a14.52,14.52,0,0,1-.16-11.37c10-27,15.11-54.72,12.88-83.23l25.18-35.42h-49c-2.2.24-4.4.31-6.46.34-3.06,0-6.1-.14-9.15-.34h-13c-10.17,21.15-20.63,42.16-37.36,59.87a122.54,122.54,0,0,1-20,17.08c-4.2,2.86-8.15,3.38-12.87.74-12-6.71-25.14-7.39-38.55-4.88-9.84,1.84-19.6,3.9-29.75,3-13-1.08-18.35-6.14-19-18-.45-7.73-1.26-15.47-1.16-23.2.18-15,6.08-26.92,19.54-34.68H138.8c-2.72.95-5,.3-7.25.1q-5.84-.51-11.64-1.26H35.77c-11.59,5.27-22.16,13.17-32,23-1.43,1.42-3.56,2.81-2.65,5.45,4.48-.3,6.93-3.21,9.71-5.32,30-22.82,62.92-26.1,98.42-12.78,2.48.93,4.5,1.56,2,4.36-6.18,6.81-9,15-11.12,23.47-1.73,6.9-6.57,11.74-12.49,15.88-1.55,1.08-4,1.3-4.45,4.14A11.75,11.75,0,0,0,92.79,498c5.52-4.11,10-8.91,12.18-15.41a123.25,123.25,0,0,1,6.65-16.32,19.36,19.36,0,0,1,19.16-10.84,140,140,0,0,0,41-2.46c4.54-.91,5.51.17,4,4.23-6,16.63-5.83,33.39-.86,50.24a35.74,35.74,0,0,1-1.38,24.08c-4.66,11.66-14,19.63-23.91,27.33-1.75,1.36-4.34,2.27-4.49,5.56,6.83-1.66,11.73-5.72,19-8.48-10.6,11.17-18.86,21.82-20.83,35.58,6-4.06,9.11-10,13.2-15.35,9.73-12.64,22.08-22.14,38.19-27.06,5.91-1.8,12.27-5.31,16,3.44,2.23-3.1,2.31-6.71,6.66-7,7.22-.38,14.42-1,21.62-1.58,3.84-.3,4.12,1.24,3.33,4.3-1.06,4-3,7-7.14,9a41.33,41.33,0,0,0-12.73,9c-3.61,3.92-8.14,7.39-9.41,13.27,3.37-.23,4.53-2.32,6-3.82,4.5-4.5,10.06-7.68,15.58-10.91,2.75-1.61,5.57-1.88,6.49,1.81,1.77,7,3,14-2.93,20.2-1.33,1.4-3.57,2.77-3.15,5.41,8.22-3.11,11.93-8,11.76-15.22-.09-4.09-.16-8.19-.42-12.27-.28-4.42,2.08-6.39,6.63-6.41,6.3,0,12.67-.5,18.89.14,12.95,1.33,25.66,4.66,38.87,4a6.63,6.63,0,0,1,5.48,2.49c6,7.17,11.88,14.43,15.33,23,1.95,4.86,1.37,9.26-3.14,12.91-9.64,7.83-19,15.95-28.81,23.59-20.47,16-43.44,28.84-62.75,46.42-11.87,10.81-28.18,15.5-46.09,11.35-13.33-3.08-26.93-5.32-40.54-7.15-15.86-2.14-40.29,9.8-48.14,24,7.77-4.54,13.83-8.8,20.73-11.69,13.19-5.53,26.44-8.09,40.52-2.62,4.91,1.91,10.22,3,15.39,4.32,11.64,3,23.56,2.66,35.47,2.26,4.83-.17,6.64,1.09,4,5.58-3.11,5.35-4.81,11.16-6.45,17-4.11,14.66-5.4,29.74-8,44.61A60,60,0,0,1,185.13,793c-8,7.56-15.79,15.29-23.58,23-1.39,1.38-3.82,2.52-2.58,6.14,6-4,11.56-7.43,16.78-11.29,14.33-10.58,27.32-22.29,34.23-38.47,4.14-9.71,4-9.93,12.73-2.83,7,5.75,16,10.49,14.88,21.21-.16,1.59-.38,4.07,2,4.23,2.6.18,3.25-2.28,3.39-4.19.47-6.65-2.44-12.17-7.34-16.86s-9.93-9.13-14.66-13.88c-3.25-3.26-5.63-7.21-4.51-11.77,1.56-6.29,2-12.75,4.36-18.93,13.23-35.26,42.75-57.82,72.8-80,1.88-1.39,3.54-1.48,3.76,1.28.95,12.26,8.44,21.67,15.68,31.24,3,4,4.39,8.5,3.12,13.49-.38,1.49-1.62,3.24.73,4.86,4.37-4.61,6.29-9.61,3.16-15.31-2.84-5.18-6.16-10.13-9.24-15.21-8.93-14.72-5.61-28.24,9.31-37.78,3.84-2.45,7.95-4.55,11.66-7.15,13-9.07,23.1-20.64,32.9-32.48.95-1.15,1.54-3,3.44-2.86s2,2.15,2.5,3.51c4.21,10.82,6.85,21.87,7,33.47.29,23.59-8.07,45.39-16.31,67.12-5.54,14.6-16.49,23.94-34,26.39-9.14,1.28-18.14,4.16-26.82,7.24-8.9,3.15-14.18,9.6-16.29,18.83,4-.31,4.81-2.65,6-4.3a29.82,29.82,0,0,1,23-13.15c15.14-1.17,29.35-4.7,42.34-12.15,3.6-2.07,4.56-.44,5.19,3,1.4,7.54.28,13.17-7.67,17.84s-13.11,12.2-15.42,21a18.29,18.29,0,0,0,5.29-4.11c4.92-4.89,9.77-9.85,15.89-13.58,2.83-1.73,4.89-2.08,6.75,1.14,4.62,8,10.89,15,16.48,22.47,8.3,11,10.66,23.15,8.48,36.31-1.06,6.47-1.38,13,.41,19.57,1.08-.27,1.43-.28,1.47-.39,1-2.82,2.2-5.62,3.06-8.49,5.31-18,5.6-35.28-7.16-51.22-4.42-5.54-7.48-11.93-10.32-18.33s-1.92-8,5.55-8.63a40,40,0,0,1,4.9-.09c17.44.65,34.5-.89,50.68-7.55,3.67-1.51,5.36-1.31,4.79,3.43-2.11,17.37-1.09,33.91,9.57,49.74,9.2,13.66,10.19,28.92.4,43.57-4.9,7.34-9.47,14.86-14.1,22.35-1.13,1.83-3.12,3.6-1.49,7.21,14.72-17.74,31.24-33.52,29.54-57.49-.13-1.85-.68-5.75,2.65-4.66,10.08,3.31,21.88,3.74,28.53,13.48,2.34,3.44,3.91,7.59,9,10.35,0-6.81-2.54-11.57-6.93-15.7-5.76-5.42-13.24-8-20.7-10.46-10.86-3.6-17.72-10.09-19.1-21A111,111,0,0,1,460,747.57c.77-18.34,8.93-34.53,16.41-51.08,5.27-11.65,16.1-15.1,27.14-18.24,7.17-2,11.12,5.16,16.9,7.52a7,7,0,0,1,1.15.73c7.77,5.06,10,11.12,7.61,19.69-.63,2.29-3,4.43-1.25,7.55,5.51-2.7,5.55-7.79,7.24-12,1.91,2.12-.69,7.65,3.74,6.78,3.81-.75,2.25-5.48,1.51-8.58-1.35-5.69-5.19-10-9.38-14.14-8.34-8.27-11.62-18.1-6.79-28.61,5-10.86,9.47-22.06,16.54-32a101.76,101.76,0,0,1,11.25-14c3.28-3.25,5.07-2.48,7.28.93a92.66,92.66,0,0,1,12.93,29.15c3.26,13.72,4.34,27.7,6.21,41.54,2,14.89-2,28.35-18.66,35.69-5.46,2.4-10.47,5.65-15.67,8.54-5.46,3-10.49,6.66-13.62,11.85-2.66,4.4-6.12,6.31-11.69,6.68-14,.94-27.46,10.47-30.7,21.18,2.71-.24,4.06-2.11,5.72-3.45,5.12-4.12,10.44-8,16.82-10.34,9.25-3.44,12.55-2.55,17.7,5.14,2.71-6.52,8.2-6,13.93-5.22,2.27.3,4.64-.15,7-.12,7.27.09,14.33-2,21.9-2-9.59,10.84-21.84,19.56-25.95,33.45-4,13.39-2.84,26.85.35,40.3,4.2-6.82,5.22-14.23,6.1-21.57,2.05-17.22,6.93-33,23.07-43.92,10.08-6.8,18.82-14.85,25.15-24.89,2.14-3.39,4.42-3.76,8-1.71,8.1,4.7,16.53,8.93,24.51,13.8,11.3,6.9,19.48,15.88,21.48,28.92.49,3.21.74,7.13,4.41,9.53.52-.77.88-1.1,1-1.48a13,13,0,0,0,.31-2.56c.46-15.49-7-27.34-19.8-36.73-7.49-5.51-15.13-10.84-22.54-16.43-4.83-3.64-8.62-8-8-14.3.18-1.68.2-3.81,2.19-4.39,1.74-.51,2.7,1.41,3.8,2.42A89.93,89.93,0,0,0,656.8,732.8c15.78,3.64,24.53,13.18,29.39,26.77.74,2.08.13,4.83,2.83,6.15,1.72-.84,1.39-2.26,1.4-3.46.18-14.48-7.34-24.57-21-31-11.25-5.25-22.47-10.57-33.93-15.39-6.36-2.67-10.27-7-13.67-12.36-11.93-18.9-7.51-40.18-10.91-60.37,4.1,4.37,5.93,9.63,8.08,14.76,6.93,16.47,21.92,26.32,41.31,26.29-3.49-3.55-7.21-4.25-10.57-5.47-11.45-4.18-20.45-10.58-23.15-22.35-2.26-9.85-6.84-18.74-12.28-27.34-2-3.18-4-6.48-3.67-10.3,1.75-18.92,9.43-35.93,20.61-51.58,3.65-5.11,10.15-4.49,12.95,1,11.41,22.3,29.62,39,50.57,53.55,12.9,8.94,23.62,19.49,30.15,33.36,4.26,9.07,5.68,18.13,1.6,27.59-4.23,9.81-7.57,20-12.63,29.43-4.5,8.4-5.11,16.92-4.5,25.77.59,8.53,11.39,23.63,18.36,26.21.54-1.19-.28-2.07-.85-3-11.35-17.37-14.14-34.88-1.17-52.7a4,4,0,0,0,.3-.58c7.3-14.06,13.92-28.3,13.51-44.37,0-1.24-.25-2.87,1.42-3.29,1.48-.37,2.47.93,3.51,1.79C770,683,787,707.89,788,740.7c.41,13.06,2.13,26,9.76,37.91,8.87,13.87,21.77,23.46,35.67,32.41a258.45,258.45,0,0,0-19.32-23.5c-12-12.92-18.19-27.18-15-44.59,1-5.2,2.41-5.84,6.88-3.63,7.12,3.51,14.66,5.69,22.8,5.37a29.43,29.43,0,0,1,22.52,8.59c2.06,2,3.72,4.86,8.24,5.39-2.89-10.19-10.38-14.7-19.75-17-8.34-2-16.85-3.41-25.27-5.17-8.17-1.7-13-6.28-14.1-14.13-1.31-9.68-4.68-18.88-8-28.08-.54-1.52-2.15-3-.77-4.76,33.95,6.32,37.42,6.3,73.9-.17,1.83-.33,3.71-.41,5.56-.58,22.77-2.11,40.67,7,56.48,20.93,1.4,1.23,2.87,3.89,5,2.33s-.24-3.5-1.44-4.9c-14.73-17.14-33-27.9-57.64-26.55-11.62.63-23.3,1.42-34.78,3.12-22.08,3.28-41-2.33-57.79-15.5-17.8-13.94-34-29.57-52.69-42.54a1.93,1.93,0,0,1-.76-2.77c17-.8,32.84-6,47.74-14.09,3.83-2.07,8.38-2.47,12.87-2.67,9.62-.43,18.37,2.39,27,5.78,1.69.66,4,2.75,5.39.31,1-1.71-1.52-2.93-3-3.86-10.16-6.48-12.78-15.22-10.05-26.06a37.7,37.7,0,0,0,.12-18.61c-1.25-4.82,1-5.86,5.39-5.34,6.71.79,13.39,2,20.13,2.37,20.82,1.21,37.21,10,50.87,24.12,7.41,7.66,12.69,16.47,17.86,25.42.71,1.22,1.52,3.14,3.58,2.15,1.43-.68,1-2.28.52-3.5-7.83-18.11-15.75-36.11-35.17-46.89-10.83-6-22.76-8.79-34.93-10.95-5.18-.92-9.08-2.63-11-7.66-1.76-4.65-.63-6,4.59-5,8,1.44,16.15,2.52,24.29.46,6.36-1.6,11.58-4.53,14.33-10.38a61.83,61.83,0,0,0-9.44,3.93c-9.41,4.53-18.84,3.93-28.39.3-3.63-1.38-5.23-2.94-3.17-6.78,3.33-6.16,6.21-12.54,9.11-18.9,1.56-3.44,3.4-4.23,6.71-1.65,11.34,8.83,24.34,15.17,37.57,21.17a36.39,36.39,0,0,1,15.26,13,61.88,61.88,0,0,1,11,33.61c.07,2.16-.68,4.6,2.18,6.08,5.19-23.76,1.41-44.77-23.62-59.67,8.77-3.15,16.21-6.17,23.9-8.5s15.7-.6,25.32,1.24c-5.34-5.76-10.49-7.21-16.2-7.25-6.18-.05-11.86,2.08-17.63,3.81-8.9,2.68-18,5.76-27.34,2.79-24.07-7.66-42.52-31.79-43.17-55.55-.1-3.77,1.05-4.71,4.85-3.06a141.07,141.07,0,0,0,19.55,7c26.05,7,52.09,5.32,78.31.81,9.56-1.65,18.87-5.38,28.88-4.23,23.25,2.67,43.33,11.46,59.94,26.84,2,1.87,3.9,4.16,7.45,4.11,0-1,.22-1.73,0-2.21A22,22,0,0,0,1026.68,481.45Zm-564.53,1.41c-5.25-8.07-4.59-17.24,1.09-22.77,1.77-1.73,3.16-2.5,5-.21,11.35,14.41,22.14,29.13,29.69,47.22C481.63,502.73,470.05,495,462.15,482.86ZM199.46,538.21c-10.26,2.21-19.9,5.74-28.49,11.92,6.16-7.9,11.66-16,14.32-25.52.61-2.17,2.52-1.23,3.89-.25,4,2.87,8.09,5.72,12,8.69S203.49,537.34,199.46,538.21Zm18.41-2.7c-7.29,1.06-11.82-1.84-19.45-12.38,13.41,3.13,25.34-.88,37.56-3,8.54-1.5,16.59.71,24.07,4.64,1.19.62,2.74,1.31,2.46,2.81s-2,1.43-3.37,1.64C245.38,531.32,231.64,533.51,217.87,535.51Zm83.64,18.3c-10-1-19.51-1.81-29-3-6.12-.8-12.1-.07-18.15.27-1.35.07-3,.39-3.89-.82-1.12-1.59.35-2.84,1.31-4a16.55,16.55,0,0,1,9.86-5.77c12.53-2.24,24.06-6.9,35.25-12.28,5-2.42,7.09-1.63,7.67,3.68a90.16,90.16,0,0,0,2.88,15.27C309.11,552.84,307.27,555,301.51,553.81Zm53.29,6.84c-3.31,8.54-8.05,16.39-13.94,25-3.78-7-6.92-13-10.2-19-1.57-2.84-.78-4.34,2.53-5.14,6.09-1.48,12.17-3,18.18-4.75C356.24,555.43,356,557.6,354.8,560.65Zm9.5-31.78a11.2,11.2,0,0,1-4.08,6.63,78.06,78.06,0,0,1-29,16.41c-5.64,1.74-9.57.39-11.62-4.94-5.32-13.79-5.89-26.81,5.86-38.55C336,497.9,344.52,486.11,350,472.57c1.36-3.37,3.35-6.54,5-9.65C373.09,483.52,367.64,506.32,364.3,528.87ZM394.5,602c1.42-3.59,5.73-1.59,8.57-2.48,12.17,1.58,24.19,2.66,36.26.48,2.73-.5,3.89,1,3.24,3.5-2.91,11.23-7.19,21.74-17.05,29.65-4.65,3.73-7.07,3-9.77-2-4.32-8.06-8.8-16.12-17.3-21.47C395.82,608,393.28,605,394.5,602ZM393.94,642c.6-2.94,1.12-5.9,1.87-8.8.46-1.79-.48-4.51,1.78-5.16,2.7-.77,4.67,1.55,6.24,3.27,2.51,2.76,5.79,5.91,4.39,9.6-1.63,4.28-7.21,2.91-10.15,4.42C394.64,645.65,393.43,644.57,393.94,642Zm40.92,74c-1,4.31-7.67,4.8-12.14,6.39-8,2.82-16.55,2-24.81,3.17-5.51.75-11.1,1-16.64,1.51-5.17.52-7.41-1-7.64-6.3-.56-13.57,2.47-26.5,6.76-39.27,2.83-8.41,6.14-16.68,9.29-25,1.67-4.42,16-10.37,20.58-8.62,2.18.82,2.14,2.64,2.16,4.35,0,4.3,0,8.6,0,12.9l.29,0c-.34,5.14-.71,10.29-1,15.43C411,692.19,416.79,700.79,426,708,429.3,710.5,435.7,712.36,434.86,716.07Zm80.22-125c-.66,4-1.93,5.45-6.64,5.15-9.05-.57-16.8,2.58-23.42,7.77l.8,1.91c4.64-1.61,9.26-3.28,13.94-4.79,3.62-1.17,7.56-1.91,10.58.81,3.21,2.9.47,6.11-.62,9-8.56,22.77-25.1,41.16-39.39,60.78-5.61,7.72-12.82,14.49-15.06,24.14-1,4.21-4.66,7.36-7.74,10.62-7,7.47-7.19,7.68-15.12.63-10.07-9-16.1-19.38-12.74-33A70.29,70.29,0,0,0,421,649c-.41-3.59.7-5.81,4-7.34,12.25-5.64,19.12-15.37,24-26.7,3.61-8.41,7.61-16.68,11.07-25.14,6.29-15.37,18.21-25.17,34.63-30.72,2.84-1,5.72-1.84,8.59-2.75,11.66-3.72,11.93-3.69,12.64,7.6C516.5,573,516.57,582,515.08,591ZM587,727.49c-2.67,2.7-5.67,5.12-8.36,7.81A34.06,34.06,0,0,1,550,745.39c-4.49,0-7.29.1-10.08,0-1.73-.08-4.12.77-4.91-1.34-.65-1.74.85-3.28,1.92-4.66a26.74,26.74,0,0,1,12.75-8.7c12.68-4.47,23.66-11.19,31.91-21.22,3.2-3.89,4.77-2.53,7,.63C593.23,716.81,593,721.53,587,727.49Zm9.37-33.44a122.89,122.89,0,0,1-6.72-36.48c-.26-11.45-1.21-22.67-4.78-33.68-.57-1.77-2.51-4.6,1.16-5.23,2.55-.44,5.17.92,5.42,3.87C593.45,645.92,599.39,669.08,596.4,694.05Zm13.28-134.2a9.4,9.4,0,0,0-.91,1.75c-3.94,10.52-10.14,18.3-23.46,19.85-5.32.63-10.41,3.67-15.37,6-4.48,2.13-7.91,1.43-11.24-1.84-3.68-3.6-7.57-7-11.4-10.5-2.23-2-3.93-4.25-4.08-7.26-1.26-25.11-9.56-48.6-19.28-71.77-1-2.34-3.86-6.32,2.84-5.51,20.45,2.55,38.58,8.84,50.41,25.66,5,7,9.86,14.12,14.8,21.17,4.18,6,8,12.18,15.37,15.52C610.58,554.41,611.69,556.75,609.68,559.85Zm7.75-11.28c-1.33,1.88-3.81-.27-5.39-1.44-10.13-7.42-14.5-18.23-19.52-28.63-1.38-2.85,1-3.3,3.24-3.47,9-.71,18.15-.74,26.91-3.41,2.17-.66,3.5.22,4,2.34,1.34,5.24,2.88,10.43,3.18,18.1C629.73,538.31,621.76,542.46,617.43,548.57Zm72.89-60.46,8.31-15.38,2,.13c2.81,6.73,5.64,13.46,8.41,20.2,1.1,2.67.19,4.13-3.09,4-5.51-.22-10.26-2.4-14.81-5C689.38,491,689.52,489.6,690.32,488.11Zm14.31,118.18c-14.3-11.53-24.38-24.73-33.33-39-11.12-17.67-13.39-37.43-17.37-56.87-1.89-9.24-1-18.48-1.26-27.72,0-1.22-.38-2.86,1.36-3.28,1.48-.35,2.7.76,3.5,1.78,4,5,9.31,8.45,14.82,11.69,3.7,2.17,2.91,4.65,1.8,7.78-4.5,12.66.05,25.49,12.35,33.47-3.06-6.75-6.07-13.45-6.7-20.78a35.79,35.79,0,0,1-.32-6.44c.59-6.19,2.74-7.42,9.11-5.53,7.1,2.11,14.15,4.4,21.33,6.28,15.46,4,28.07,21.42,25.9,36.09a35.9,35.9,0,0,1-4.14,11.63c-3.43,6.36-6.93,12.71-10.66,18.92C715,584.44,707.17,593.73,704.63,606.29Zm97.68-27.64a60.29,60.29,0,0,0-.31,18.67c.36,3,0,4.91-3.76,4-9.36-2.35-17.93.26-26.58,3.07q-14.5,4.73-29.18,9a40.82,40.82,0,0,1-22.72-.06c-4.38-1.21-5.87-3.77-5.26-7.8a32.47,32.47,0,0,1,7.86-17c4-4.51,7.92-9.06,11.42-13.88,9.35-12.85,12.64-22.2,13.49-37.79,8.6,5.77,19.3,6.7,24.82,15.18.52.81,1.28.94,2.35.78C792.53,550.06,805.54,562.14,802.31,578.65Zm18.6-32.19c-.63,2.4-2.64,2.08-4.44,1.73-9.72-1.86-19.44-3.75-30.08-7.29,8.51-5,16.59-6.87,25.41-6C816.88,535.41,822.07,542,820.91,546.46Z" transform="translate(-0.9)"/><path d="M531.6,442H490.45c.26.39.53.78.81,1.15h42.08A20.12,20.12,0,0,1,531.6,442Z" transform="translate(-0.9)"/><path d="M547.08,445.66h-2.91c2.19,8.06,4.78,15.93,9.78,23.1,1.18,1.69,1.89,5.07,4.42,4.07,3.27-1.28,1-4.38,0-6.15Z" transform="translate(-0.9)"/><path d="M303.06,455.81c-2.1,3.88-5.66,7.16-6.58,13.17,7.85-4,11.35-9.56,13.74-15.8a29,29,0,0,0,2-10H306.6C306.81,446.81,305.65,451.05,303.06,455.81Z" transform="translate(-0.9)"/><path d="M654.21,95.86V78.24l-1.32-4.88a95.4,95.4,0,0,0-18-21.36,83.43,83.43,0,0,0-37.81-19.65V0c-70.86,5.13-78.27,60.76-78.27,60.76v.51l-.19.2A102.59,102.59,0,0,0,509.33,52c-11.75-10.5-29.92-21.4-53.84-21.4S413.55,41.54,402,52.06a91.46,91.46,0,0,0-17.5,21.47l-1.24,4.71V95.86h-8.82V242.74H666.3V95.86ZM426.73,212.94a55.8,55.8,0,0,1,28.78-8,57.21,57.21,0,0,1,29.05,8Zm82.13-6.71c-11.71-10.33-29.72-21-53.35-21h0c-23.26,0-40.87,10.32-52.36,20.53V81.05a77.55,77.55,0,0,1,13.14-15.14c9.21-8.08,22-15.5,39.26-15.5,17.71,0,31.18,8,40.64,16.37a81.9,81.9,0,0,1,10.72,11.56c.82,1.07,1.48,2.07,2,2.82Zm72.19-189V165.12s-26.67-4.75-52.15,18.37V80.71h0V69.07S538.47,25.72,581.05,17.2ZM552.27,212.94A56,56,0,0,1,581,205a57.37,57.37,0,0,1,29.1,8Zm82.17-6.71c-11.77-10.37-29.74-21-53.41-21-23.23,0-40.87,10.32-52.39,20.53V205c22.16-30.1,68.43-22.09,68.43-22.09V52.75a65.66,65.66,0,0,1,24.68,14,79.9,79.9,0,0,1,10.63,11.56c.85,1.07,1.52,2.07,2,2.82V206.23Z" transform="translate(-0.9)"/><path class="a" d="M128.9,376.3V422c-10.07,6.64-30,11.48-47.94,11.48-43.3,0-75.92-29-75.92-77.95,0-49.94,34.64-79.95,77.53-79.95,16.92,0,33.84,4.23,44.72,9.46V319.3C117.22,299.16,99.9,290.1,82,290.1c-27.79,0-49.75,24.17-49.75,64.45,0,42.49,27.19,64,55.79,64a72.71,72.71,0,0,0,14.7-1.61V376.3c0-9.06-6.64-14.7-24.16-21.75H143C133.93,360.59,128.9,366.63,128.9,376.3Z" transform="translate(-0.9)"/><path class="b" d="M212.68,279c28.19,0,44.1,15.11,44.1,42.9,0,21.75-14.7,34.84-31,39.27L256,409.33c4,6.44,10.27,14.7,17.72,20.74H236.64L201.8,367.24H188.51v41.69c0,9.06,6.24,15.1,17.52,21.14H149.44c10.07-6,14.7-12.08,14.7-21.14V300.17c0-9.06-4.63-15.11-14.7-21.15Zm-24.17,76.13H203c19.33,0,28.6-12.08,28.6-32.83,0-18.53-7.45-30.21-25.38-30.21H188.51Z" transform="translate(-0.9)"/><path class="c" d="M328.28,433.5c-33.23,0-58.81-29.61-58.81-78.95s25.58-78.95,58.81-78.95c33.63,0,59,30.21,59,78.95C387.29,403.49,361.91,433.5,328.28,433.5Zm0-143.4c-19.34,0-33.43,22.76-33.43,64.45,0,41.89,14.09,64.45,33.43,64.45s33.63-22.56,33.63-64.45C361.91,312.86,347.61,290.1,328.28,290.1Z" transform="translate(-0.9)"/><path class="d" d="M448.11,279c-13.7,6-19.94,12.09-19.94,21.15v80.36c0,23.56,14.9,35.44,30.82,35.44,15.5,0,31-11.88,31-36.05V301.78c0-10.07-6.44-15.91-18.73-22.76h45.32c-10.28,6.65-14.91,13.7-14.91,22.76v76.94c0,32.82-18.12,54.78-47.13,54.78-28.8,0-50.75-21.55-50.75-54.18V300.17c0-9.06-4.63-15.11-14.9-21.15Z" transform="translate(-0.9)"/><path class="e" d="M557.67,279,620.1,386l-.4-84.19c0-10.07-7.65-14.9-23.56-22.76h50.15c-10.28,6-15.71,13.7-15.71,22.76v129.1H618.29L544,306.41l.61,101.11c0,10.07,7.65,15.3,23.56,22.55H518c10.07-6,15.51-13.49,15.51-22.55V300.17c0-9.06-4.63-15.11-14.7-21.15Z" transform="translate(-0.9)"/><path class="f" d="M663.8,408.93V300.17c0-9.06-4.63-15.11-14.7-21.15h60.22c35.85,0,58.81,27.19,58.81,75.53s-23,75.52-58.81,75.52H649.1C659.17,424,663.8,418,663.8,408.93ZM704.69,417c25.37,0,38.06-25.17,38.06-62.43s-12.69-62.44-38.06-62.44H688.17V417Z" transform="translate(-0.9)"/><path class="a" d="M844.46,359.58H820.29V417h32.22c19.14,0,27.19-9.46,37.26-30.21v43.3H776c12.49-6,18.13-12.08,18.13-21.14V300.17c0-9.06-5.64-15.11-18.13-21.15H888.77v38.27c-10.07-18.53-18.13-25.18-37.26-25.18H820.29v54.38h24.17c9.46,0,15.1-5,21.15-16.11v45.31C859.56,364.62,853.92,359.58,844.46,359.58Z" transform="translate(-0.9)"/><path class="a" d="M920,408.93V300.17c0-9.06-5.64-15.11-18.12-21.15h69.88c41.89,0,69.08,27.19,69.08,75.53s-27.19,75.52-69.08,75.52H901.86C914.34,424,920,418,920,408.93ZM966.71,417c30.81,0,46.92-25.17,46.92-62.43s-16.11-62.44-46.92-62.44H946.16V417Z" transform="translate(-0.9)"/><rect x="4.13" y="438.39" width="1035.79" height="10.52"/></svg>