<?xml version="1.0" encoding="UTF-8"?><svg id="Layer_1" xmlns="http://www.w3.org/2000/svg" xmlns:xlink="http://www.w3.org/1999/xlink" viewBox="0 0 989.04 158.27"><defs><style>.cls-1{fill:url(#linear-gradient-2);}.cls-2{fill:url(#linear-gradient-5);}.cls-3{fill:url(#linear-gradient-3);}.cls-4{fill:url(#linear-gradient);}.cls-5{fill:url(#linear-gradient-4);}.cls-6{fill:#f2f2f2;}</style><linearGradient id="linear-gradient" x1="379.41" y1="24.1" x2="379.41" y2="135.14" gradientUnits="userSpaceOnUse"><stop offset="0" stop-color="red"/><stop offset="1" stop-color="#c1272d"/></linearGradient><linearGradient id="linear-gradient-2" x1="465.28" y1="21.58" x2="465.28" y2="137.66" xlink:href="#linear-gradient"/><linearGradient id="linear-gradient-3" x1="556.71" x2="556.71" y2="137.66" xlink:href="#linear-gradient"/><linearGradient id="linear-gradient-4" x1="651.84" x2="651.84" y2="135.73" xlink:href="#linear-gradient"/><linearGradient id="linear-gradient-5" x1="744.82" x2="744.82" xlink:href="#linear-gradient"/></defs><path class="cls-6" d="m318.63,95.61v33.61c-7.4,4.89-22.06,8.44-35.24,8.44-31.83,0-55.82-21.32-55.82-57.3s25.47-58.78,57-58.78c12.44,0,24.87,3.11,32.87,6.96v25.17c-7.4-14.81-20.14-21.47-33.31-21.47-20.43,0-36.57,17.77-36.57,47.38,0,31.24,19.99,47.08,41.01,47.08,3.55,0,7.25-.44,10.81-1.18v-29.91c0-6.66-4.89-10.81-17.77-15.99h47.38c-6.66,4.44-10.36,8.88-10.36,15.99Z"/><path class="cls-4" d="m380.22,24.1c20.73,0,32.42,11.1,32.42,31.54,0,15.99-10.81,25.61-22.8,28.87l22.21,35.38c2.96,4.74,7.55,10.81,13.03,15.25h-27.24l-25.61-46.19h-9.77v30.65c0,6.66,4.59,11.1,12.88,15.55h-41.6c7.4-4.44,10.81-8.88,10.81-15.55V39.64c0-6.66-3.41-11.1-10.81-15.55h46.49Zm-17.77,55.96h10.66c14.21,0,21.02-8.88,21.02-24.13,0-13.62-5.48-22.21-18.66-22.21h-13.03v46.34Z"/><path class="cls-1" d="m465.21,137.66c-24.43,0-43.23-21.76-43.23-58.04s18.8-58.04,43.23-58.04,43.38,22.21,43.38,58.04-18.66,58.04-43.38,58.04Zm0-105.42c-14.21,0-24.58,16.73-24.58,47.38s10.36,47.38,24.58,47.38,24.73-16.58,24.73-47.38-10.51-47.38-24.73-47.38Z"/><path class="cls-3" d="m553.3,24.1c-10.07,4.44-14.66,8.88-14.66,15.55v59.07c0,17.32,10.96,26.06,22.65,26.06s22.8-8.74,22.8-26.5v-57.45c0-7.4-4.74-11.7-13.77-16.73h33.31c-7.55,4.89-10.96,10.07-10.96,16.73v56.56c0,24.13-13.33,40.27-34.65,40.27s-37.31-15.84-37.31-39.83v-58.19c0-6.66-3.41-11.1-10.96-15.55h43.53Z"/><path class="cls-5" d="m633.85,24.1l45.9,78.62-.3-61.89c0-7.4-5.63-10.96-17.32-16.73h36.87c-7.55,4.44-11.55,10.07-11.55,16.73v94.9h-9.03l-54.63-91.5.44,74.32c0,7.4,5.63,11.25,17.32,16.58h-36.87c7.4-4.44,11.4-9.92,11.4-16.58V39.64c0-6.66-3.41-11.1-10.81-15.55h28.58Z"/><path class="cls-2" d="m711.87,119.59V39.64c0-6.66-3.41-11.1-10.81-15.55h44.27c26.35,0,43.23,19.99,43.23,55.52s-16.88,55.52-43.23,55.52h-44.27c7.4-4.44,10.81-8.88,10.81-15.55Zm30.06,5.92c18.65,0,27.98-18.51,27.98-45.9s-9.33-45.9-27.98-45.9h-12.14v91.79h12.14Z"/><path class="cls-6" d="m844.68,83.32h-17.77v42.2h23.69c14.07,0,19.99-6.96,27.39-22.21v31.83h-83.65c9.18-4.44,13.33-8.88,13.33-15.55V39.64c0-6.66-4.15-11.1-13.33-15.55h82.91v28.13c-7.4-13.62-13.32-18.51-27.39-18.51h-22.95v39.98h17.77c6.96,0,11.1-3.7,15.55-11.84v33.31c-4.44-8.14-8.59-11.84-15.55-11.84Z"/><path class="cls-6" d="m900.21,119.59V39.64c0-6.66-4.15-11.1-13.33-15.55h51.38c30.79,0,50.78,19.99,50.78,55.52s-19.99,55.52-50.78,55.52h-51.38c9.18-4.44,13.33-8.88,13.33-15.55Zm34.35,5.92c22.65,0,34.5-18.51,34.5-45.9s-11.84-45.9-34.5-45.9h-15.1v91.79h15.1Z"/><path class="cls-6" d="m182.39,62.5v-11.49l-.86-3.19c-.24-.38-4.08-7.06-11.75-13.93-5.82-5.21-14.13-10.56-24.65-12.81V0c-46.2,3.35-51.03,39.61-51.03,39.61v.33s-.09.09-.13.13c-1.66-1.93-3.67-4.04-6.04-6.18-7.66-6.84-19.51-13.95-35.11-13.95s-27.34,7.14-34.85,14c-7.51,6.9-11.19,13.61-11.41,14l-.81,3.08v11.49H0v95.77h190.28V62.5h-7.88ZM34.07,138.84c5.09-3.01,11.28-5.2,18.77-5.21,7.46,0,13.74,2.2,18.94,5.21h-37.71Zm53.55-4.37c-7.64-6.74-19.38-13.69-34.79-13.69h-.03c-15.16,0-26.65,6.73-34.14,13.39V52.84c1.32-2.02,4.2-6.02,8.57-9.87,6.01-5.27,14.37-10.11,25.59-10.11s20.33,5.2,26.5,10.68c3.06,2.72,5.44,5.49,6.99,7.54.54.7.97,1.35,1.3,1.84,0,0,0,81.55,0,81.55ZM134.69,11.22v96.45s-17.39-3.1-34,11.97V52.62h0v-7.59s6.24-28.27,34-33.82Zm-18.77,127.63c5.11-3.01,11.3-5.2,18.75-5.21,7.46,0,13.76,2.2,18.97,5.21h-37.72Zm53.58-4.37c-7.68-6.77-19.39-13.69-34.83-13.69-15.15-.01-26.65,6.73-34.16,13.39v-.51c14.45-19.62,44.62-14.4,44.62-14.4V34.39c6.56,1.95,11.92,5.45,16.09,9.14,3.08,2.72,5.39,5.49,6.93,7.54.55.7.99,1.35,1.34,1.84v81.56h0Z"/></svg>