<svg xmlns="http://www.w3.org/2000/svg" xmlns:xlink="http://www.w3.org/1999/xlink" viewBox="0 0 989.04 158.27"><defs><style>.a{fill:#231f20;}.b{fill:url(#a);}.c{fill:url(#b);}.d{fill:url(#c);}.e{fill:url(#d);}.f{fill:url(#e);}</style><linearGradient id="a" x1="379.41" y1="24.1" x2="379.41" y2="135.14" gradientUnits="userSpaceOnUse"><stop offset="0" stop-color="red"/><stop offset="1" stop-color="#c1272d"/></linearGradient><linearGradient id="b" x1="465.28" y1="21.58" x2="465.28" y2="137.66" xlink:href="#a"/><linearGradient id="c" x1="556.71" y1="24.1" x2="556.71" y2="137.66" xlink:href="#a"/><linearGradient id="d" x1="651.84" y1="24.1" x2="651.84" y2="135.73" xlink:href="#a"/><linearGradient id="e" x1="744.82" y1="24.1" x2="744.82" y2="135.14" xlink:href="#a"/></defs><path class="a" d="M318.63,95.61v33.61c-7.4,4.88-22.06,8.44-35.24,8.44-31.83,0-55.82-21.32-55.82-57.3,0-36.72,25.47-58.78,57-58.78,12.43,0,24.87,3.11,32.86,7V53.71C310,38.9,297.31,32.24,284.13,32.24c-20.43,0-36.57,17.77-36.57,47.38,0,31.24,20,47.08,41,47.08a53.64,53.64,0,0,0,10.81-1.18V95.61c0-6.66-4.88-10.81-17.76-16H329C322.33,84.06,318.63,88.5,318.63,95.61Z"/><path class="b" d="M380.22,24.1c20.73,0,32.43,11.1,32.43,31.53,0,16-10.81,25.62-22.8,28.88l22.2,35.38a64.22,64.22,0,0,0,13,15.25H397.84L372.23,89h-9.77v30.64c0,6.67,4.59,11.11,12.88,15.55H333.73c7.41-4.44,10.81-8.88,10.81-15.55V39.64c0-6.66-3.4-11.1-10.81-15.54Zm-17.76,56h10.66c14.21,0,21-8.88,21-24.13,0-13.62-5.48-22.21-18.66-22.21h-13Z"/><path class="c" d="M465.21,137.66c-24.43,0-43.23-21.77-43.23-58s18.8-58,43.23-58c24.72,0,43.38,22.21,43.38,58S489.93,137.66,465.21,137.66Zm0-105.42C451,32.24,440.63,49,440.63,79.62S451,127,465.21,127s24.72-16.59,24.72-47.38S479.42,32.24,465.21,32.24Z"/><path class="d" d="M553.3,24.1c-10.06,4.44-14.65,8.88-14.65,15.54V98.72c0,17.32,11,26.06,22.65,26.06,11.4,0,22.8-8.74,22.8-26.51V40.83c0-7.4-4.74-11.7-13.77-16.73h33.31c-7.55,4.88-10.95,10.07-10.95,16.73V97.39c0,24.13-13.33,40.27-34.65,40.27-21.17,0-37.31-15.85-37.31-39.83V39.64c0-6.66-3.4-11.1-11-15.54Z"/><path class="e" d="M633.85,24.1l45.9,78.62-.3-61.89c0-7.4-5.63-11-17.32-16.73H699c-7.55,4.44-11.54,10.07-11.54,16.73v94.9h-9l-54.63-91.5.44,74.33c0,7.4,5.63,11.25,17.33,16.58H604.68c7.4-4.44,11.4-9.92,11.4-16.58V39.64c0-6.66-3.4-11.1-10.81-15.54Z"/><path class="f" d="M711.87,119.59V39.64c0-6.66-3.4-11.1-10.8-15.54h44.27c26.35,0,43.23,20,43.23,55.52s-16.88,55.52-43.23,55.52H701.07C708.47,130.7,711.87,126.26,711.87,119.59Zm30.06,5.93c18.65,0,28-18.51,28-45.9s-9.33-45.9-28-45.9H729.79v91.8Z"/><path class="a" d="M844.68,83.32H826.92v42.2h23.69c14.06,0,20-7,27.39-22.21v31.83H794.34c9.18-4.44,13.33-8.88,13.33-15.55V39.64c0-6.66-4.15-11.1-13.33-15.54h82.92V52.23c-7.41-13.62-13.33-18.51-27.39-18.51h-23v40h17.76c7,0,11.11-3.7,15.55-11.85V95.16C855.79,87,851.64,83.32,844.68,83.32Z"/><path class="a" d="M900.21,119.59V39.64c0-6.66-4.15-11.1-13.33-15.54h51.38c30.79,0,50.78,20,50.78,55.52s-20,55.52-50.78,55.52H886.88C896.06,130.7,900.21,126.26,900.21,119.59Zm34.35,5.93c22.65,0,34.49-18.51,34.49-45.9s-11.84-45.9-34.49-45.9h-15.1v91.8Z"/><path d="M182.39,62.5V51l-.86-3.19A62.51,62.51,0,0,0,169.78,33.9a54.46,54.46,0,0,0-24.65-12.81V0c-46.2,3.35-51,39.61-51,39.61V40l-.13.13a67.47,67.47,0,0,0-6-6.18C80.26,27.06,68.41,20,52.82,20S25.47,27.09,18,34a59.8,59.8,0,0,0-11.41,14L5.75,51V62.5H0v95.77H190.28V62.5ZM34.07,138.84a36.5,36.5,0,0,1,18.76-5.21,37.29,37.29,0,0,1,18.94,5.21Zm53.55-4.37c-7.64-6.74-19.38-13.7-34.79-13.7h0a51,51,0,0,0-34.14,13.39V52.84A50.62,50.62,0,0,1,27.24,43c6-5.27,14.36-10.11,25.59-10.11,11.55,0,20.34,5.19,26.5,10.67a52.87,52.87,0,0,1,7,7.54c.54.7,1,1.35,1.3,1.84ZM134.69,11.22v96.44s-17.39-3.1-34,12v-67h0V45S106.92,16.77,134.69,11.22ZM115.92,138.84a36.67,36.67,0,0,1,18.76-5.21,37.43,37.43,0,0,1,19,5.21Zm53.58-4.37c-7.67-6.77-19.39-13.7-34.82-13.7a51.13,51.13,0,0,0-34.16,13.39v-.51C115,114,145.13,119.24,145.13,119.24V34.39a42.72,42.72,0,0,1,16.09,9.15,52.09,52.09,0,0,1,6.94,7.53c.55.7,1,1.35,1.34,1.84v81.56Z"/></svg>