<?xml version="1.0" encoding="utf-8"?>
<!-- Generator: Adobe Illustrator 26.3.1, SVG Export Plug-In . SVG Version: 6.00 Build 0)  -->
<svg version="1.1" xmlns="http://www.w3.org/2000/svg" xmlns:xlink="http://www.w3.org/1999/xlink" x="0px" y="0px"
	 viewBox="0 0 512 512" style="enable-background:new 0 0 512 512;" xml:space="preserve">
<g id="Layer_1">
</g>
<g id="Layer_2">
	<path d="M256,0C114.6,0,0,114.6,0,256s114.6,256,256,256s256-114.6,256-256S397.4,0,256,0z M365.3,268.9
		c-2.1,23.4-0.2,46.8-1.1,70.2c-0.4,10.8-1.4,21.6-4.4,32.1c-2.9,9.7-9,14.9-17,13.4c-6.3-1.2-10.3-6-13.9-10.7
		c-9.9-13.1-15.9-28.1-21.6-43.3c-12.8-34-21.5-69.3-31.5-104.1c-1.9-6.8-4.3-13.5-6.6-20.1c-0.5-1.5-1.2-3.8-3.1-3.4
		c-2.3,0.4-2,2.9-1.8,4.7c1.2,10.8,2.3,21.6,3.9,32.3c4.5,30.6,9.5,61.2,12.6,92c1.4,13.5,2.3,27.2-0.9,40.8
		c-3.5,14.8-16.5,14.8-24.5,7.1c-7.9-7.5-13.2-16.7-17.8-26.3c-10.4-21.9-17.7-45-26.2-67.6c-3.6-9.6-6.9-19.3-11.8-28.3
		c-0.9-1.6-1.4-4-3.8-3.1c-2,0.7-1.3,3-1.1,4.5c1.9,14.6,4,29.2,5.9,43.8c2.2,17.2,4.5,34.5,4.1,51.9c-0.2,7.1-1,14.2-3.4,20.9
		c-3.5,10-12.9,12.6-20.9,5.6c-6.9-6.1-10.8-14.2-13.9-22.6c-7.2-19.5-14.1-39.2-21.1-58.7c-0.4-1-0.7-2.1-1.3-3.1
		c-0.5-0.9-1-2.2-2.5-1.8c-1.4,0.4-1.2,1.8-1.1,2.8c0.9,7,1.8,14.1,2.8,21.1c2.7,18,6.8,36,5.3,54.4c-0.7,8.6-4.1,11.5-12.7,11.5
		c-5.4,0-10.9-0.3-16.3,0c-3.5,0.2-4.9-0.6-4.8-4.5c0.2-7.6,0-7.9,7.4-7.5c12,0.7,13.8-1.1,12.5-14.7c-1.6-17.5-5.6-34.6-6.8-52.1
		c-0.6-9.1-1.6-18.3,0.5-27.4c2.3-10,8.6-12.3,16.7-6c8.7,6.8,12.6,17,17,26.6c7,15.2,11.1,31.6,17.7,47c1,2.3,1.6,6.2,4.3,5.7
		c3.2-0.6,1.8-4.5,1.6-6.8c-1.2-14.1-4-28-6.1-42c-3.7-24.4-8-48.7-7.2-73.5c0.2-5.3,0.9-10.5,2.3-15.5c3-10.4,11.4-12.9,19.7-6.1
		c9.3,7.5,14.4,17.9,19.5,28.3c11.6,23.4,19.6,48.3,29,72.5c2.3,5.9,4.1,12.1,7.6,17.4c0.9,1.3,1.5,3.4,3.8,2.5
		c1.8-0.7,1.3-2.5,1.3-3.9c0.3-13.4-2.7-26.4-4.7-39.5c-2.7-17.7-5.8-35.3-9-52.9c-4.1-22.5-6.8-45.1-7.6-67.8
		c-0.3-8.6,0.6-17.2,3.2-25.4c4.1-12.6,16.8-15.6,26.5-6.4c8,7.7,12.9,17.3,17.2,27.3c10.6,24.9,18.3,50.7,26.8,76.3
		c7.1,21.5,14,43.1,21,64.6c0.6,1.9,1.4,3.8,2.3,5.7c0.6,1.4,1,3.7,3.1,3.2c1.7-0.4,0.9-2.6,1-4c0.2-16.8-1.8-33.7-0.1-50.5
		c1.6-16.1,5.4-31.5,19.9-41.3c9.6-6.5,20.2-7.1,31.1-3.4c1.3,0.4,2.4,0.8,2.8,2.4c2.6,10.6,5.3,21.2,8.2,32.7
		C377.3,237.3,366.8,252.3,365.3,268.9z"/>
</g>
</svg>
