<?xml version="1.0" encoding="utf-8"?>
<!-- Svg Vector Icons : http://www.onlinewebfonts.com/icon -->
<!DOCTYPE svg PUBLIC "-//W3C//DTD SVG 1.1//EN" "http://www.w3.org/Graphics/SVG/1.1/DTD/svg11.dtd">
<svg version="1.1" xmlns="http://www.w3.org/2000/svg" xmlns:xlink="http://www.w3.org/1999/xlink" x="0px" y="0px" viewBox="0 0 1000 1000" enable-background="new 0 0 1000 1000" xml:space="preserve">
<metadata> Svg Vector Icons : http://www.onlinewebfonts.com/icon </metadata>
<g><path d="M500,10C229.4,10,10,229.4,10,500c0,270.7,219.4,490,490,490s490-219.3,490-490C990,229.4,770.6,10,500,10z M528.1,208.7c22.2-26.1,59.8-45.4,90.8-46.7c4,36.1-10.6,72.4-32.1,98.4c-21.6,26-56.8,46.3-91.5,43.6C490.7,268.7,508.1,231.8,528.1,208.7z M704.5,702.2c-25.7,37.6-52.4,75-94.4,75.8c-41.3,0.8-54.6-24.5-101.8-24.5c-47.2,0-62,23.7-101.1,25.3c-40.5,1.5-71.4-40.5-97.3-78c-53-76.6-93.5-216.4-39.1-310.8c26.9-46.9,75.2-76.5,127.6-77.3c39.9-0.7,77.5,26.9,101.8,26.9c24.4,0,70.1-33.2,118.1-28.3c20.1,0.8,76.5,8.1,112.8,61.1c-2.9,1.8-67.4,39.3-66.6,117.4c0.9,93.3,81.8,124.3,82.8,124.8C746.5,616.6,734.3,658.7,704.5,702.2z"/></g>
</svg>