<?xml version="1.0" encoding="utf-8"?>
<!-- Generator: Adobe Illustrator 26.3.1, SVG Export Plug-In . SVG Version: 6.00 Build 0)  -->
<svg version="1.1" xmlns="http://www.w3.org/2000/svg" xmlns:xlink="http://www.w3.org/1999/xlink" x="0px" y="0px"
	 viewBox="0 0 512 512" style="enable-background:new 0 0 512 512;" xml:space="preserve">
<g id="Layer_1">
	<path d="M256,0C114.6,0,0,114.6,0,256s114.6,256,256,256s256-114.6,256-256S397.4,0,256,0z M287.3,349.7
		c-1.7,13.5-3.9,26.9-6.1,40.3c-1.2,7.1-3.3,13.9-10.4,17.5c-10.9,5.5-21.6,5.2-31.9-1.6c-3.2-2.1-5.5-5.3-6.3-9.1
		c-2-9.6-4-19.2-5.5-28.9c-1.5-9.3-2.7-18.6-3.7-27.9c-1.4-13.6-3.1-27.1-1.9-40.8c0.8-8.7,5.9-14.4,13.4-17.9
		c14.7-6.7,29.4-6.6,43.8,0.9c7.9,4.1,12,10.8,12,19.9c0,2.6,0,5.2,0,7.7c0.3,0,0.5,0,0.8,0.1C290.1,323.2,289,336.5,287.3,349.7z
		 M202.4,296.5c2.2,2.2,3.2,4.4,3,7.5c-0.2,4.4,0.2,8.8,0.2,13.3c0,1-0.4,2.2-1.1,2.8c-0.4,0.3-1.9-0.2-2.6-0.7
		c-18.2-13-30.9-30.1-36.8-51.7c-8.4-30.9-2.7-59.4,17.1-84.6c15.7-19.9,36.4-31.5,61.6-34.9c43.9-5.9,85.2,19.6,100.8,60.4
		c4.1,10.7,6.2,21.9,6.1,33.5c-0.9,32.4-14.2,58.2-40.5,77.3c-0.7,0.5-2.1,1-2.6,0.7c-0.6-0.4-0.9-1.7-0.9-2.6
		c-0.1-4.5,0.2-9,0-13.6c-0.1-3,0.9-5.2,3-7.3c11.1-11,18.7-24.2,21.4-39.6c5.3-30.2-3.8-55.5-27.5-74.8
		c-27.5-22.4-66.8-22.4-94.6-0.3c-19.2,15.2-29.1,35.3-29.4,59.8C179.4,263,187.3,281.3,202.4,296.5z M288.9,230.1
		c0.1,18-14.6,33-32.5,33.2c-18.2,0.2-33.2-14.7-33.3-33c-0.1-17.8,14.8-32.7,32.7-32.8C273.8,197.3,288.8,212.1,288.9,230.1z
		 M363.5,333.2c-16,18.8-35.6,32.5-58.8,41.1c-3.8,1.4-4.5,1-4-3c0.4-4.3,1.1-8.6,1.7-12.8c0.4-2.5,2.6-3.3,4.5-4.4
		c7.6-4.4,15.7-8.3,22.7-13.6c25.7-19.2,42-44.7,47.5-76.3c7.5-43.1-4.8-80.4-35.9-111.1c-18.3-18.1-40.7-28.9-66.2-32.8
		c-28.9-4.4-56.1,0.6-81.1,15.6c-32.5,19.5-52.5,48.2-59.1,85.5c-5.3,30,0.3,58.3,16.1,84.3c13.2,21.8,31.7,38,55,48.6
		c2.5,1.1,3.8,2.8,4.1,5.6c0.4,4.2,1.2,8.4,1.7,12.6c0.3,2.2-0.8,3-2.9,2.3c-27-9.7-49-26.2-66.1-49.1c-12-16-20.2-33.9-24.4-53.4
		c-5.1-23.2-4.6-46.3,2.2-69.1c11.1-37.5,33.8-65.8,67.8-85c17.9-10.1,37.2-15.7,57.8-17.2c34.4-2.4,65.6,6.6,93.4,26.8
		c26.6,19.4,44.2,45.2,53.1,76.9c1.5,5.4,2.7,10.9,3.4,16.4c0.9,6.8,1.2,13.8,1.6,18C396.9,276.3,385.8,306.9,363.5,333.2z"/>
</g>
<g id="Layer_2">
</g>
</svg>
