<?xml version="1.0" encoding="utf-8"?>
<!-- Generator: Adobe Illustrator 26.3.1, SVG Export Plug-In . SVG Version: 6.00 Build 0)  -->
<svg version="1.1" xmlns="http://www.w3.org/2000/svg" xmlns:xlink="http://www.w3.org/1999/xlink" x="0px" y="0px"
	 viewBox="0 0 512 512" style="enable-background:new 0 0 512 512;" xml:space="preserve">
<g id="Layer_1">
</g>
<g id="Layer_2">
	<g>
		<path d="M218.2,229.4c-0.1,0.2-0.2,0.3-0.3,0.5c-0.2,0.3-0.3,1.1-0.4,1.8c-0.1,1-0.3,2.1-0.7,3.2c-0.2,0.4-0.3,0.9-0.5,1.4
			c-1,2.9-2,6.2-5.1,7c-3,0.8-3.3,1.6-3.1,6.3c0,0.6,0,1.2,0,1.8v18c0.1,0.3,0.1,0.6,0.1,1c0,2.4,0,4.7,0,7.1c0,5.3,0,10.9,0,16.3
			c0,2.7,0.5,4.5,1.4,5.4c1,0.9,2.9,0.9,4.3,0.8c1.6-0.1,5.4-0.4,6.2-1.2c0.5-0.5,0.7-2.3,0.7-5.5c0-1.2,0-2.3,0-3.5
			c0-2.5,0.1-4.9,0-7.3C220.2,266.4,219.3,247.8,218.2,229.4z"/>
		<path d="M242.5,189.2l-0.1-17.4c0-0.7,0-1.3,0-2c0-0.8,0.1-1.9,0-2.6c-0.3,0-1,0-2.1,0.2c-42.2,8.9-76.8,16-108.9,22.5
			c-3.3,0.7-3.7,1.5-3.7,4.3c0.1,6.3,0,12.6-0.1,18.8c0,4-0.1,8-0.1,12c0,5.7,0,11.5,0,17.2c0.3-0.2,0.8-0.5,1.2-0.9
			c1.5-1.1,3.3-2.6,5.7-2.5c5.1,0.2,7.1-1.6,7.9-7c0.5-3.6,2.5-8.1,5.6-10c4.2-2.6,9.7-5.5,15.2-5.5c0.1,0,0.1,0,0.2,0
			c6.3,0.1,11.1,4.7,12.2,11.6c0.2,0.1,0.4,0.2,0.6,0.3c1.6,0.7,3,1.4,4.3,1.5c6.4,0.6,9.5-2.1,10.9-9.3c1.4-7.7,7.1-12.8,15.1-13.8
			c7.6-0.9,13.8,2.6,16.7,9.4c3.1,7.4,5.1,9.7,10.9,8.1c2.2-0.6,4.1,0.7,5.3,1.6c0.3,0.2,0.6,0.4,0.8,0.5c0.8,0.5,1.5,1.3,1.7,2.2
			c0.2,0.9,0.1,1.9-0.4,2.7c-0.2,0.3-0.4,0.7-0.6,1c-0.5,0.9-1.1,2-2,3c0.1,0.3,0.2,0.7,0.3,1c0.2,1.4-0.5,2.8-1.8,3.5
			c-0.3,0.1-0.6,0.4-0.9,0.6c-1.2,0.8-2.8,2-4.9,1.9c-0.1,0-0.2,0-0.3,0c-1.7,0-2.2,0.4-2.3,0.5c-0.3,0.3-0.7,1.2-0.5,4.3
			c0.4,6,0.8,12.1,1.2,18.1c0.6,9.5,1.2,19.4,1.9,29.1c0,0.5,0.3,1.3,0.6,2c6.3-0.7,12.6-1.6,18.8-2.5c-6.2-6-7.2-14.1-7.4-21.5
			C243,244.8,242.8,216.5,242.5,189.2z"/>
		<path d="M190,247.8c-0.3,0-0.8-0.1-1.8,0.1c-3.3,0.5-3.8,1.2-3.8,4.6c0.2,8.8,0.2,17.7,0.2,26.3c0,6.7,0,13.5,0.1,20.3
			c0,0.6,0,1.2-0.1,1.8c0,0.4-0.1,0.9-0.1,1.3c0.1,0,0.3,0,0.5,0l0.1,0c5-0.4,5.1-0.6,5-3.4c-0.3-5.7-0.2-11.4-0.2-17
			c0-2.4,0.1-4.8,0.1-7.2c0-0.3,0-0.7,0.1-1c0-2.1,0-4.2,0-6.2c0-5.7,0-11.7,0-17.6C190.2,248.6,190.1,248.1,190,247.8z"/>
		<path d="M269.3,170.8c0-2.1-0.5-3.6-1.5-4.6c-1.4-1.4-4.2-2.1-8.3-2.1c-0.3,0-0.5,0-0.8,0c-6.6,0.1-6.8,0.3-6.8,6.7
			c0.1,10.4,0.2,20.8,0.3,31.1c0.2,19,0.5,38.6,0.5,57.9c0,12.5,1.1,22.8,6.3,32.2c0.1,0.2,0.2,0.5,0.3,0.7l6.2-2.1
			c0.4-1.7,0.9-3.4,1.3-5.1c1.3-4.9,2.5-9.6,2.6-14.2c0.3-27.8,0.1-56.2,0-83.5C269.4,182.1,269.4,176.5,269.3,170.8z"/>
		<path d="M174.8,276.8c0-8.1,0-16.5-0.1-24.7c-0.2-0.5-1.2-1.5-1.7-1.7c-1.6-0.5-3.1-1.2-4.3-2.1c-0.6,12.8-0.9,25.7-1.1,38.2
			c-0.1,4.6-0.2,9.3-0.3,13.9l0,0.3c0,1-0.1,2.7,0.2,3.4c0.2,0,0.6,0.1,1.3,0l0.7-0.1c4.9-0.5,5.4-0.9,5.3-3.9
			C174.8,292.2,174.8,284.4,174.8,276.8z"/>
		<path d="M139.7,255.8c-0.2,0-0.6,0-1.3,0.1c-1.6,0.3-3-0.4-3.8-0.8c-0.1-0.1-0.3-0.2-0.4-0.2c-1.1-0.4-2-1.4-2.2-2.6
			c-0.1-0.4-0.1-0.8,0-1.2c-1.1-0.6-2-1.2-2.9-1.8c-0.5-0.3-1-0.7-1.5-1c0,1.2,0,2.4,0,3.5c0,15.6,0,31.8-0.1,47.7
			c0,2.9-0.4,5.6-0.7,8.4c2.9-0.3,5.8-0.5,8.7-0.7c3.2-0.2,4.4-1,4.3-4.9c-0.2-14.8-0.1-29.6,0.1-43.9
			C139.9,256.8,139.8,256.1,139.7,255.8z"/>
		<path d="M307.7,257.9c0-1.2,0-2.3,0-3.5c0.1-5.3,0-7.9-4-9.6c-2.5-1.1-3-3.7-3.4-5.8c-0.1-0.6-0.2-1.2-0.4-1.6
			c-0.1-0.4-0.3-0.9-0.4-1.3c0,7.3,0,14.6,0,21.7l0,8.1c0,0.9-0.3,1.7-0.9,2.3c0,2,0.1,4.1,0.1,6.1c0.1,6.4,0.3,13-0.3,19.6
			c-0.2,2.6,0.3,3.6,0.5,3.8c0.7,0.8,2.9,0.9,4.9,0.9c1,0,2,0.1,3,0.2c0.9,0.1,1.2,0,1.2,0c0.4-0.5,0.4-2.8,0.4-3.8
			c0-0.3,0-0.6,0-0.9C308.5,282.9,308.2,271.1,307.7,257.9z"/>
		<path d="M375.4,240c2.2,0,3.7,1.5,4.7,2.5c0.1,0.1,0.3,0.3,0.4,0.4c0.1-13.7,0.5-27.4,0.8-40.8l0.1-5.7c0.1-3.7-0.6-4.5-4.3-5.4
			c-18.9-4.2-38.1-8.5-56.7-12.7c-11.9-2.7-23.8-5.4-35.6-8c-1.8-0.4-3.8-0.8-4.9-1c-0.1,1.1-0.1,2.8-0.1,4.5l0,1l0,8.7
			c0,15.3,0,30.9-0.1,46.6c0.3-0.2,0.6-0.3,0.9-0.5c1.6-1,3.6-2.2,5.9-2.1c2.8,0.1,3.8-0.8,5.5-4.7c1.5-3.6,5.4-13.1,15.9-12.6
			c11.4,0.5,14.6,10.5,15.6,13.8c2.3,7.3,4.6,8.8,12.9,8.7c1.2,0,2.3,0.2,3.4,0.6c-1-3.5-1.8-7,0.5-9.3c2.7-2.7,7.6-5.4,12.2-5.4
			c0,0,0.1,0,0.1,0c7,0,12.5,4.9,14.2,12.9c1.4,6.5,3.5,8.7,8.6,8.7C375.4,240,375.4,240,375.4,240z"/>
		<path d="M380.6,265.9c-0.1-5.6-0.1-11.2-0.1-16.9c-0.1,0.1-0.2,0.2-0.2,0.3c-0.6,0.7-1.3,1.5-2.3,2.1c0.1,0.4,0.1,0.7,0.1,1.1
			c-0.2,1.6-1.4,2.9-3,3.1c-0.7,0.1-1.4,0.1-2,0.2c-0.8,0-1.8,0.1-2.3,0.3c-0.2,0.2-0.5,0.8-0.5,1c0,14.6,0,30.5,0.4,46.5
			c0.1,0.5,1,1.6,1.5,1.9c3.2,0.9,7,1.4,11.1,1.4c0.2-0.2,0.5-0.6,0.6-0.8c-0.4-5-0.9-10.1-1.4-15
			C381.6,282.9,380.7,274.4,380.6,265.9z"/>
		<path d="M256,0C114.6,0,0,114.6,0,256s114.6,256,256,256s256-114.6,256-256S397.4,0,256,0z M409.6,318.9c-0.4,0.3-0.9,0.6-1.4,1
			c-1.4,1.1-3,2.3-5.1,2.8c-0.6,0.1-1.3,0.3-1.9,0.4c-4.5,1-9.1,2-13.8,1.5c-4.7-0.5-9.2-1.6-13.6-2.7c-2.5-0.6-5-1.2-7.5-1.7
			c-2-0.4-4.2-0.6-6.4-0.8c-1.4-0.1-2.8-0.3-4.2-0.4c-4-0.5-8.1-1.1-12.1-1.6c-8.5-1.2-17.4-2.4-26.1-3.3c-2.4-0.3-5-0.1-7.7,0
			c-2.9,0.1-5.8,0.3-8.8-0.1c-7.4-0.8-12.6-2.6-15.4-3.6l-0.4-0.2c-4.2-1.5-10.3-2.2-18.2-2.2c0.4,1.3,0.8,2.9,0.8,4.6
			c0.1,19.5,0.2,40.5,0,62c0,2-0.8,3.8-1.5,5.3c-0.2,0.5-0.5,1.1-0.7,1.5c-0.5,1.4-1.8,2.3-3.3,2.3c0,0-0.1,0-0.1,0
			c-1.5,0-2.8-1-3.3-2.5c-0.2-0.5-0.3-1-0.5-1.5c-0.5-1.5-1.2-3.1-1.2-5c-0.1-7.6-0.1-15.4-0.1-22.9c0-2,0-3.9,0-5.9
			c-0.4-0.5-0.6-1.2-0.6-1.9l0-6.4c0-9.5,0-19,0-28.5c0-0.3,0-0.5,0-0.7c-8.4,0.5-18.4,1.6-29.7,3.2c0,0-0.1,0-0.1,0
			c-40.9,4.5-66.7,7.9-76.5,10l-0.4,0.1c-0.9,0.2-2.1,0.5-3.8,0.7c-9.6,1.4-15.1,1-19.6,0.6c-2.5-0.2-4.5-0.4-6.6-0.2
			c-0.6,0.7-1.7,2.7-2.3,3.9c-0.6,1.2-1.3,2.5-2,3.6c-0.1,0.1-0.2,0.5-0.3,0.8c-0.1,0.4-0.2,0.7-0.3,1c-0.5,1.3-1.7,2.2-3.1,2.3
			c-0.1,0-0.1,0-0.2,0c-1.3,0-2.5-0.7-3.1-1.9c-0.1-0.2-0.2-0.4-0.3-0.6c-0.6-0.9-1.4-2.2-1.4-3.9c0-0.6,0-1.2,0.1-1.8
			c0.2-4.3,0-4.6-2.3-5.1c-1.5-0.3-2.6-1.6-2.8-3.2c-0.1-0.6-0.5-6.1,2.9-7.4c12.7-5.2,12.9-5.3,12.9-19c-0.1-19-0.3-38.3-0.5-57
			c-0.1-9.5-0.2-19-0.3-28.5c0-5.7,0-10.7,0-15.4c0-1.8-0.2-2.6-0.4-2.9c-0.3,0-1,0.1-2.3,0.7c-0.1,0.1-0.2,0.1-0.3,0.2
			c-0.7,0.3-1.7,0.8-2.9,0.9c-1.7,0.1-3.4,0.1-5,0.1c-0.6,0-1.2,0-1.8,0c-1.4,0-2.7-0.8-3.3-2.1s-0.3-2.8,0.6-3.8
			c0.4-0.4,0.8-1,1.3-1.6c1.3-1.7,2.7-3.7,5.1-4.6c11.7-4.4,23.6-8.6,35.2-12.7c4.3-1.5,8.6-3,12.9-4.6c7.4-2.6,14.7-5.2,22.1-7.8
			c19.3-6.8,39.3-13.9,58.8-21.1c10.5-3.9,20.5-4,30.8-0.2c31,11.4,62.6,22.9,93.1,34l31.5,11.5c0.1,0.1,0.3,0.1,0.4,0.1
			c0.6,0.2,1.5,0.4,2.3,1c2.5,1.6,5,3.3,7.4,5l2.5,1.7c1.3,0.9,1.8,2.5,1.4,4c-0.5,1.5-1.9,2.5-3.4,2.4c-1.1,0-2.1-0.1-3.2-0.2
			c-2.3-0.2-4.4-0.3-6.4,0c-0.4,0.3-1,1-1.2,1.4c-0.2,13.9-0.2,28.1-0.2,41.8c0,2.9,0,5.8,0,8.7c0,0,0.1,0.1,0.1,0.1
			c0.7,0.7,1,1.5,1,2.5c0,5.1,0,10.3,0,15.4c0,11.9-0.1,24.3,0.1,36.4c0.1,9,1,10,10.2,12.6c1.9,0.5,3.3,1.6,4.6,2.5
			c0.5,0.4,0.9,0.7,1.4,0.9c1,0.6,1.6,1.7,1.6,2.9C411.2,317.1,410.6,318.3,409.6,318.9z"/>
		<path d="M285,244.3c-2.7-0.5-4.2-2.8-5.5-5.1c-0.1,11.5-0.3,22.9-0.6,34.3c-0.1,5.3-2.4,10.3-4.6,15.1c-0.9,1.9-1.7,3.7-2.4,5.6
			c0,0.1,0,0.2-0.1,0.2c-0.1,0.4-0.3,0.8-0.4,1.1c0.5,0,1,0,1.5,0c3.3,0,6.5,0.6,9.6,1.2l0.2,0c2.7,0.5,3.5,0.1,3.7-0.1
			c0.2-0.1,0.8-0.8,0.9-3.5l0.1-3.5c0.3-12.3,0.6-25.1,1.6-37.6C289.6,245.8,289.3,245,285,244.3z"/>
		<path d="M344.6,283.7c-0.3-11.7-0.5-23.8-1-35.7c-0.1,0.1-0.2,0.2-0.3,0.3c-1,1.3-2.3,2.2-3.5,3c-0.6,0.4-1.4,1-1.7,1.3
			c-0.6,2.2-0.7,4.8-0.8,7.5c0,1.2-0.1,2.5-0.1,3.8c-0.1,1.8-1.6,3.2-3.4,3.3c0,0,0,0,0,0c-1.8,0-3.3-1.4-3.5-3.2
			c-0.1-1.4-0.2-2.8-0.2-4.1c-0.1-3-0.3-5.8-1.1-8.1c-0.1-0.2-1-1-3.3-1.9c-0.3,0.3-0.6,0.7-0.7,1c-0.2,11.2-0.1,22.6-0.1,33.6
			c0,5,0,10,0,14.9c0,0.9,0.2,1.4,0.3,1.6c0.1,0.1,0.7,0.5,3.1,0.2c0.6-0.4,1.7-1.7,1.8-2.4c0.4-3.6,0.4-7.3,0.4-11.2
			c0-2.2,0-4.4,0.1-6.7c0.1-2,0.4-3.8,0.6-5.6c0.1-0.8,0.2-1.5,0.3-2.3c0.2-1.7,1.7-3,3.5-3c0,0,0,0,0,0c1.8,0,3.2,1.4,3.4,3.1
			c0.1,0.7,0.2,1.5,0.3,2.2c0.2,1.7,0.4,3.5,0.5,5.3c0.1,6.1,0.2,12.6,0.2,19.8c0,1.8,0,2.3,3.9,2.5c1,0,1.4-0.2,1.4-0.2
			c0,0,0.3-0.4,0.2-2.3C344.8,294.8,344.7,289.2,344.6,283.7z"/>
	</g>
</g>
</svg>
