<?xml version="1.0" encoding="UTF-8"?><svg id="Layer_1" xmlns="http://www.w3.org/2000/svg" viewBox="0 0 479.69 639.82"><path d="M279.66,.25c0,2.18,0,4.13,0,6.08,0,50.16,.09,100.32-.06,150.47-.04,13.71,3.67,25.59,14.45,34.63,7.96,6.68,17.43,8.58,27.5,8.57,50.49-.01,100.98,0,151.47,0,1.98,0,3.96,0,6.63,0v5.68c0,116.81,.09,233.63-.06,350.44-.04,31.98-13.53,56.83-41.48,73.09-12.48,7.26-26.26,10.52-40.62,10.53-105.15,.09-210.29,.11-315.44,.02-35.31-.03-65.38-20.84-76.97-53.89-3.08-8.79-4.83-18.53-4.84-27.84C-.05,399.22-.04,240.41,.08,81.61,.11,41.49,27.97,8.46,67.3,1.31,72.19,.42,77.24,.06,82.21,.06,146.37-.02,210.52,0,274.68,.01c1.46,0,2.92,.14,4.98,.24Z"/><path d="M477,159.6h-156.63V2.97c51.95,51.95,104.47,104.47,156.63,156.63Z"/></svg>