<?xml version="1.0" encoding="utf-8"?>
<!-- Svg Vector Icons : http://www.onlinewebfonts.com/icon -->
<!DOCTYPE svg PUBLIC "-//W3C//DTD SVG 1.1//EN" "http://www.w3.org/Graphics/SVG/1.1/DTD/svg11.dtd">
<svg version="1.1" xmlns="http://www.w3.org/2000/svg" xmlns:xlink="http://www.w3.org/1999/xlink" x="0px" y="0px" viewBox="0 0 1000 1000" enable-background="new 0 0 1000 1000" xml:space="preserve">
<metadata> Svg Vector Icons : http://www.onlinewebfonts.com/icon </metadata>
<g><path d="M971.8,414.6c-22.3-36-60.4-56.2-99.7-57.3c-1.6-0.2-3.2-0.3-4.9-0.3h-0.1l-125-0.1l-102.7-0.1c15.4-44.2,23.8-91.6,23.8-141.1c0-32.1-3.5-63.3-10.2-93.4l-0.6,0.1c-12.2-52.7-59.3-91.9-115.7-91.9c-13.3,0-26,2.2-37.9,6.2c-47,15.8-80.8,60.2-80.8,112.5c0,1.5,0.1,2.9,0.1,4.3c0.1,2.3,0.2,4.6,0.4,6.8c-3.7,125.8-102.4,227.8-226.9,236.7l0,0.8l-135.5,0.3c-1.6-0.2-3.3-0.3-5-0.3c-22.5,0-40.8,18.3-40.8,40.8l0,42l-0.1,165.2L10,928.6c0,22.5,18.3,40.8,40.8,40.8c2.2,0,4.4-0.2,6.5-0.6l150.7,0.1c2,0.3,4,0.5,6.1,0.5c2.1,0,4.1-0.2,6.1-0.5l557.5,0.2c25.1,1.9,51-3.9,73.8-18.5c19.4-12.3,34.1-29.3,43.5-48.6c2.3-3.5,4.1-7.5,5.2-11.8l0.4-2c2.9-8.4,4.9-17.1,5.9-25.9l54.9-242.3l24.1-106.5l2.9-12.6c1.2-4.4,1.5-8.8,1.3-13.1C991.6,463.1,985.9,437.4,971.8,414.6z M173.6,479.5l-0.1,165.6l-0.2,242.2l-81.6,0l0.2-241.8L92,479.7L173.6,479.5z M877.7,620.2l-28.5,125.7L825,852.8l-2.6,11.3c-2.9,7.3-7.9,13.7-15,18.2c-4.8,3.1-10.1,4.9-15.4,5.6c-1.7-0.2-3.5-0.4-5.2-0.4l-7.2,0l-107.1,0l-417.6-0.2l0.2-242.6l0.2-175.3c87.9-22.3,161.5-80.5,204.4-158c9.8-17.7,17.9-36.3,24.3-55.8c0.1,0,0.1,0.1,0.2,0.1c3.5-10.4,7.3-23.5,10-37.6c6.4-33,5.7-64.9,5.7-64.9l0.5,0c-0.1-0.9-0.1-1.7-0.1-2.6c0-21.1,17.1-38.2,38.2-38.2c21.1,0,38.2,17.1,38.2,38.2c0,0.6-0.1,1.2-0.1,1.8l0.3,0c0,0,6.1,30.6,6.2,64.1c0,18.1-1,32.5-2.1,43c-1.5,14.1-3.3,21.3-3.3,21.3l-0.5,0c-6.7,34.9-18.6,68-34.9,98.3l0.4,0.4c-2.7,5.4-4.3,11.6-4.3,18.1c0,22.5,18.3,40.8,40.8,40.8l35.3,0l127.5,0.1l125.2,0.1c0,0,0.1,0,0.1,0v0.1c13.9-0.7,27.8,5.9,35.6,18.6c6.3,10.2,7.4,22.2,4,32.8l0.3,0.1L877.7,620.2z"/></g>
</svg>