<?xml version="1.0" encoding="utf-8"?>
<!-- Generator: Adobe Illustrator 26.5.0, SVG Export Plug-In . SVG Version: 6.00 Build 0)  -->
<svg version="1.1" id="Layer_1" xmlns="http://www.w3.org/2000/svg" xmlns:xlink="http://www.w3.org/1999/xlink" x="0px" y="0px"
	 viewBox="0 0 900.3 900.3" style="enable-background:new 0 0 900.3 900.3;" xml:space="preserve">
<style type="text/css">
	.st0{fill:#918F8F;}
</style>
<g id="a">
	<path class="st0" d="M900.3,450.1c0,248.6-201.5,450.1-450.1,450.1S0,698.7,0,450.1C0,201.5,201.5,0,450.1,0
		S900.3,201.5,900.3,450.1z M380.1,675.3V225c0-16.6-13.4-30-30-30h-89.7c-16.6,0-30,13.4-30,30v450.3c0,16.6,13.4,30,30,30h89.7
		C366.6,705.3,380.1,691.8,380.1,675.3z M669.9,675.3V225c0-16.6-13.4-30-30-30h-89.7c-16.6,0-30,13.4-30,30v450.3
		c0,16.6,13.4,30,30,30h89.7C656.5,705.3,669.9,691.8,669.9,675.3z"/>
</g>
<g id="b">
</g>
</svg>
