<?xml version="1.0" encoding="UTF-8"?><svg xmlns="http://www.w3.org/2000/svg" viewBox="0 0 900.28 900.28"><defs><style>.c{fill:#fff;}</style></defs><g id="a"><path class="c" d="M900.28,450.14c0,248.61-201.53,450.14-450.14,450.14S0,698.74,0,450.14C0,201.53,201.53,0,450.14,0c248.61,0,450.14,201.53,450.14,450.14Zm-520.22,225.13V225.01c0-16.57-13.43-30-30-30h-89.68c-16.57,0-30,13.43-30,30v450.26c0,16.57,13.43,30,30,30h89.68c16.57,0,30-13.43,30-30Zm289.83,0V225.01c0-16.57-13.43-30-30-30h-89.68c-16.57,0-30,13.43-30,30v450.26c0,16.57,13.43,30,30,30h89.68c16.57,0,30-13.43,30-30Z"/></g><g id="b"/></svg>