<?xml version="1.0" encoding="utf-8"?>
<!-- Generator: Adobe Illustrator 26.3.1, SVG Export Plug-In . SVG Version: 6.00 Build 0)  -->
<svg version="1.1" xmlns="http://www.w3.org/2000/svg" xmlns:xlink="http://www.w3.org/1999/xlink" x="0px" y="0px"
	 viewBox="0 0 512 512" style="enable-background:new 0 0 512 512;" xml:space="preserve">
<g id="Layer_1">
</g>
<g id="Layer_2">
	<g>
		<circle cx="275.4" cy="230.2" r="36.9"/>
		<path d="M256,0C114.6,0,0,114.6,0,256s114.6,256,256,256s256-114.6,256-256S397.4,0,256,0z M154.6,403.5
			c-21.9,0-39.6-17.7-39.6-39.6s17.7-39.6,39.6-39.6s39.6,17.7,39.6,39.6S176.5,403.5,154.6,403.5z M275.4,351.9
			c-67.2,0-121.7-54.5-121.7-121.7c0-67.2,54.5-121.7,121.7-121.7c67.2,0,121.7,54.5,121.7,121.7
			C397.1,297.4,342.6,351.9,275.4,351.9z"/>
	</g>
</g>
</svg>
