<?xml version="1.0" encoding="UTF-8"?><svg id="Layer_1" xmlns="http://www.w3.org/2000/svg" viewBox="0 0 127.92 128"><defs><style>.cls-1{stroke-width:0px;}</style></defs><path class="cls-1" d="m84.26,92.7c-21.98,17.91-54.81,13.49-72.09-7.05C-4.76,65.53-3.79,35.48,13.61,16.67,32.39-3.62,63.7-5.28,84.07,11.1c11.15,8.96,17.77,20.55,19.41,34.8,1.63,14.2-1.89,27.04-10.92,38.52.21.14.47.24.66.43,10.86,10.85,21.72,21.7,32.57,32.56,1.13,1.13,1.93,2.46,2.1,4.07.3,2.87-1.69,5.89-4.95,6.43-2.24.37-4.06-.48-5.59-2.01-10.88-10.86-21.75-21.74-32.62-32.61-.17-.17-.31-.38-.48-.59ZM51.33,11.89c-21.83.18-39.66,18.19-39.56,40.25.1,22.15,18.38,40.44,41.19,39.9,21.32-.5,39.92-18.47,38.98-41.86-.84-20.92-18.38-38.62-40.61-38.28Z"/></svg>