<?xml version="1.0" encoding="utf-8"?>
<!-- Svg Vector Icons : http://www.onlinewebfonts.com/icon -->
<!DOCTYPE svg PUBLIC "-//W3C//DTD SVG 1.1//EN" "http://www.w3.org/Graphics/SVG/1.1/DTD/svg11.dtd">
<svg version="1.1" xmlns="http://www.w3.org/2000/svg" xmlns:xlink="http://www.w3.org/1999/xlink" x="0px" y="0px" viewBox="0 0 1000 1000" enable-background="new 0 0 1000 1000" xml:space="preserve">
<metadata> Svg Vector Icons : http://www.onlinewebfonts.com/icon </metadata>
<g><g><g><g><path d="M500,10C229.4,10,10,229.4,10,500s219.4,490,490,490s490-219.4,490-490S770.6,10,500,10z M726.3,787.2c-6.1,11.2-17.6,17.5-29.5,17.5c-5.5,0-11-1.3-16.2-4.1C602.2,757.3,513,734.5,423,734.5c-54,0-107.2,8-158.3,23.8c-17.8,5.5-36.6-4.4-42.1-22.2c-5.5-17.7,4.4-55.3,22.2-60.9c57.5-17.8,117.5-26.8,178.2-26.8c101.3,0,201.7,25.7,290.1,74.4C729.4,731.6,735.4,771,726.3,787.2z M788.6,602.7c-7,13.5-20.7,35.3-34.9,35.3c-6.2,0-12.3-1.3-18.1-4.5c-97.3-50.5-202.4-76.1-312.6-76.1c-60.7,0-121,8-179.2,24c-21,5.7-42.6-6.6-48.3-27.6c-5.6-21,6.7-56.7,27.6-62.4c64.9-17.7,132.2-26.7,199.8-26.7c121.2,0,241.8,29.4,348.7,85C791.1,559.7,798.6,583.4,788.6,602.7z M814.6,454.9c-6.7,0-13.5-1.5-20-4.7C678.6,392.3,553.6,363,423.2,363c-68,0-135.7,8.3-201.5,24.5c-24.1,5.9-48.4-8.7-54.4-32.8c-6-24,8.7-53.1,32.8-59c72.7-18.1,147.7-27.2,223-27.2c144.5,0,283,32.5,411.6,96.6c22.2,11.1,31.3,38,20.2,60.2C847,441,831.2,454.9,814.6,454.9z"/></g></g></g><g></g><g></g><g></g><g></g><g></g><g></g><g></g><g></g><g></g><g></g><g></g><g></g><g></g><g></g><g></g></g>
</svg>