<?xml version="1.0" encoding="utf-8"?>
<!-- Generator: Adobe Illustrator 26.3.1, SVG Export Plug-In . SVG Version: 6.00 Build 0)  -->
<svg version="1.1" xmlns="http://www.w3.org/2000/svg" xmlns:xlink="http://www.w3.org/1999/xlink" x="0px" y="0px"
	 viewBox="0 0 512 512" style="enable-background:new 0 0 512 512;" xml:space="preserve">
<style type="text/css">
	.st0{display:none;}
	.st1{display:inline;}
</style>
<g id="Layer_1">
	<path d="M256,0C114.6,0,0,114.6,0,256s114.6,256,256,256s256-114.6,256-256S397.4,0,256,0z M355.2,356.2
		c-4.2,6.8-12.8,8.7-19.8,4.4c-23.8-14.4-49.5-23.4-76.9-27.9c-25-4.1-50.1-4.2-75.3-1.6c-15.3,1.6-30.5,4.2-45.5,7.6
		c-9.2,2.1-17-3-18.3-12c-1-6.7,3.5-13.5,10.4-15.2c6.2-1.5,12.5-2.8,18.8-4c19.7-3.7,39.7-6,59.8-6.5c2.4-0.1,4.9,0,7.3,0
		c28.2-0.1,56,3.5,83,12c18.1,5.7,35.2,13.5,51.4,23.3C357.2,340.8,359.4,349.4,355.2,356.2z M384.6,290.7
		c-2.6,8-10.3,12.9-18.8,11.9c-2.4-0.3-4.9-1.1-7-2.4c-24-14.5-50-24-77.3-30.1c-27.2-6.1-54.8-8.5-82.6-7.2
		c-22.3,1-44.3,4.4-65.7,10.8c-12.6,3.8-24.1-5.5-23.2-18.5c0.5-7,5.5-13.1,12.5-15.2c11.4-3.5,23-6.2,34.8-8.2
		c18.7-3.2,37-4.7,61.3-4.7c37.3,0.3,78.7,7.3,118.4,23.1c13.7,5.4,26.9,11.9,39.5,19.6C384.1,274.3,387.3,282.7,384.6,290.7z
		 M416.5,217.8c-2.7,9.2-11.1,15.5-20.8,15.4c-3.8-0.1-7.3-1.1-10.5-3c-24-14.1-50-23-77-29c-36.5-8.1-73.5-10.9-110.8-9.1
		c-24.8,1.2-49.2,4.4-73.1,11.3c-4.6,1.3-9,2.2-13.7,1c-9-2.3-15.6-10.3-16-19.4c-0.4-9.6,5.3-18.3,14.3-21.2
		c11.2-3.6,22.7-6.2,34.3-8.2c25.5-4.5,51.2-6.4,83.5-6.3c31.3,0.2,68.6,4.5,105.1,14.1c21.2,5.6,41.8,12.9,61.3,22.9
		c4.7,2.4,9.3,4.9,13.9,7.6C415.4,198.7,419.2,208.6,416.5,217.8z"/>
</g>
<g id="Layer_2" class="st0">
	<g id="Layer_2_00000032624107479794709490000013180034690679944112_" class="st1">
		<g>
			<polygon points="227.1,298.2 227.1,298.2 301,256.2 227.1,214.2 			"/>
			<path d="M256,0C114.6,0,0,114.6,0,256s114.6,256,256,256s256-114.6,256-256S397.4,0,256,0z M391.4,324.7
				c-3.3,12.2-12.8,21.5-25,24.8c-22,5.9-110.5,5.9-110.5,5.9s-88.4,0-110.5-5.9c-12.2-3.3-21.7-12.5-25-24.8
				c-5.9-22.2-5.9-68.5-5.9-68.5s0-46.3,5.9-68.5c3.3-12.2,12.8-21.9,25-25.2c22-5.9,110.5-5.9,110.5-5.9s88.4,0,110.5,5.9
				c12.2,3.3,21.7,12.9,25,25.2c5.9,22.2,5.9,68.5,5.9,68.5S397.4,302.5,391.4,324.7z"/>
		</g>
	</g>
</g>
</svg>
