<?xml version="1.0" encoding="utf-8"?>
<!-- Svg Vector Icons : http://www.onlinewebfonts.com/icon -->
<!DOCTYPE svg PUBLIC "-//W3C//DTD SVG 1.1//EN" "http://www.w3.org/Graphics/SVG/1.1/DTD/svg11.dtd">
<svg version="1.1" xmlns="http://www.w3.org/2000/svg" xmlns:xlink="http://www.w3.org/1999/xlink" x="0px" y="0px" viewBox="0 0 1000 1000" enable-background="new 0 0 1000 1000" xml:space="preserve">
<metadata> Svg Vector Icons : http://www.onlinewebfonts.com/icon </metadata>
<g><path d="M500,990c270.6,0,490-219.4,490-490S770.6,10,500,10S10,229.4,10,500S229.4,990,500,990z M356,374.5c94.2,47.6,173.8,44.8,173.8,44.8s-30.2-105.2,63.1-151.8c93.3-46.6,157.5,32,157.5,32s16.3-4.5,28.4-8.9c12.1-4.5,29.7-12.4,29.7-12.4l-28.7,51.3l44.3-4.7c0,0-5.5,8-23.2,24.2c-17.7,16.2-25,24.6-25,24.6s6.3,126.6-60.4,224.1S562.6,753.7,437.4,766s-206.7-38.4-206.7-38.4s54.7-3.1,89.6-16.5c34.9-13.3,85.1-48.5,85.1-48.5s-71.3-22-97-46.6c-25.6-24.7-32-39.3-32-39.3l70.4-0.9c0,0-74.1-39.3-95.1-70.4c-21-31.1-23.8-61.3-23.8-61.3l54.1,21.9c0,0-45-61.2-51.4-108.8c-6.4-47.6,8.2-73.2,8.2-73.2S261.8,326.9,356,374.5z"/></g>
</svg>