<?xml version="1.0" encoding="utf-8"?>
<!-- Generator: Adobe Illustrator 26.3.1, SVG Export Plug-In . SVG Version: 6.00 Build 0)  -->
<svg version="1.1" xmlns="http://www.w3.org/2000/svg" xmlns:xlink="http://www.w3.org/1999/xlink" x="0px" y="0px"
	 viewBox="0 0 512 512" style="enable-background:new 0 0 512 512;" xml:space="preserve">
<g id="Layer_1">
</g>
<g id="Layer_2">
	<g>
		<polygon points="227.1,298.2 227.1,298.2 301,256.2 227.1,214.2 		"/>
		<path d="M256,0C114.6,0,0,114.6,0,256s114.6,256,256,256s256-114.6,256-256S397.4,0,256,0z M391.4,324.7
			c-3.3,12.2-12.8,21.5-25,24.8c-22,5.9-110.5,5.9-110.5,5.9s-88.4,0-110.5-5.9c-12.2-3.3-21.7-12.5-25-24.8
			c-5.9-22.2-5.9-68.5-5.9-68.5s0-46.3,5.9-68.5c3.3-12.2,12.8-21.9,25-25.2c22-5.9,110.5-5.9,110.5-5.9s88.4,0,110.5,5.9
			c12.2,3.3,21.7,12.9,25,25.2c5.9,22.2,5.9,68.5,5.9,68.5S397.4,302.5,391.4,324.7z"/>
	</g>
</g>
</svg>
