<?xml version="1.0" encoding="UTF-8"?><svg id="a" xmlns="http://www.w3.org/2000/svg" viewBox="0 0 108 108"><defs><style>.b{fill:#fff;}</style></defs><path class="b" d="M108,54c0,29.82-24.18,54-54,54S0,83.82,0,54,24.18,0,54,0s54,24.18,54,54Zm-63.69,29.43l29.98-21.2c2.33-1.65,3.71-4.32,3.71-7.17s-1.38-5.52-3.71-7.17l-30-21.22c-3.96-2.8-9.44-1.86-12.24,2.1-2.8,3.96-1.86,9.44,2.1,12.24l19.86,14.05-19.84,14.03c-3.96,2.8-4.9,8.28-2.1,12.24,1.71,2.42,4.42,3.71,7.18,3.71,1.75,0,3.52-.52,5.06-1.61Z"/></svg>