<svg id="Layer_1" data-name="Layer 1" xmlns="http://www.w3.org/2000/svg" viewBox="0 0 383.33 384.11"><path d="M0,203.18c1.79-7,3.85-13.94,8.34-19.76,7.7-10,17.62-15.93,29.9-16.13,23.95-.39,47.91-.18,71.87-.21a10.26,10.26,0,0,1,1.41.26c.06,1.35.17,2.73.17,4.11q.15,100.16.33,200.3c0,3-.81,4.76-3.29,6.24-6.08,3.6-12.47,5.94-19.51,6-16.72.05-33.44.32-50.15,0C19.85,383.57,4.47,369.52.85,349.7a9.93,9.93,0,0,0-.67-1.76Z"/><path d="M242.92,133.44h4.94q45.86-.06,91.69-.12c14.15,0,26.18,5,35.18,16.63a41.91,41.91,0,0,1,.58,50L373.13,203c15.84,17.65,13.52,46.2-9.05,59.86,8.54,21.64-.17,40.52-15.73,49.87,1,4.26,2.5,8.47,2.86,12.78,2,22.94-14.19,41.37-36.45,41.52-30.31.22-60.63.13-90.94.17-18.22,0-36.43.09-54.64,0-13.27,0-25.91-3.25-38.17-8.4-2.11-.89-3-2-3-4.51,0-57.63-.12-115.25,0-172.88,0-2.11,1.84-4.2,2.78-6.32q5.16-11.7,10.3-23.42c11-25,22-49.88,32.89-74.88a20.62,20.62,0,0,0,1.6-7.85c.13-16.69.14-33.38-.06-50.06,0-4.86,1.63-8.17,5.54-10.63A54.42,54.42,0,0,1,201.53.37c9.69-1.54,18,1.81,25.36,8,21.25,18,30.85,41.28,27.91,69.92-1.76,17.16-5.67,33.83-10.58,50.26C243.81,129.93,243.49,131.31,242.92,133.44Z"/></svg>