<?xml version="1.0" encoding="UTF-8"?><svg xmlns="http://www.w3.org/2000/svg" xmlns:xlink="http://www.w3.org/1999/xlink" viewBox="0 0 900 900"><defs><style>.e{fill:#fff;filter:url(#b);}</style><filter id="b" filterUnits="userSpaceOnUse"><feOffset dx="0" dy="0"/><feGaussianBlur result="c" stdDeviation="24"/><feFlood flood-color="#000" flood-opacity=".16"/><feComposite in2="c" operator="in"/><feComposite in="SourceGraphic"/></filter></defs><g id="a"><path class="e" d="M780.81,450c0,182.7-148.11,330.81-330.81,330.81S119.19,632.7,119.19,450c0-182.7,148.11-330.81,330.81-330.81,182.7,0,330.81,148.11,330.81,330.81Zm-382.31,157.5V292.5c0-16.57-13.43-30-30-30h-50c-16.57,0-30,13.43-30,30v315c0,16.57,13.43,30,30,30h50c16.57,0,30-13.43,30-30Zm213,0V292.5c0-16.57-13.43-30-30-30h-50c-16.57,0-30,13.43-30,30v315c0,16.57,13.43,30,30,30h50c16.57,0,30-13.43,30-30Z"/></g><g id="d"/></svg>