<svg xmlns="http://www.w3.org/2000/svg" version="1.1" xmlns:xlink="http://www.w3.org/1999/xlink" xmlns:svgjs="http://svgjs.com/svgjs" width="1000" height="1000"><g transform="matrix(3.4267699266671237,0,0,3.4267699266671237,-0.000008887096896614821,84.09292733508852)"><svg xmlns="http://www.w3.org/2000/svg" version="1.1" xmlns:xlink="http://www.w3.org/1999/xlink" xmlns:svgjs="http://svgjs.com/svgjs" width="291.82" height="242.74"><svg xmlns="http://www.w3.org/2000/svg" viewBox="0 0 291.82 242.74"><path d="M279.73,95.86V78.24l-1.32-4.88a95.4,95.4,0,0,0-18-21.36,83.43,83.43,0,0,0-37.81-19.65V0c-70.85,5.13-78.27,60.76-78.27,60.76v.51l-.19.2A102.59,102.59,0,0,0,134.85,52C123.1,41.5,104.93,30.6,81,30.6S39.07,41.54,27.56,52.06a91.78,91.78,0,0,0-17.5,21.47L8.82,78.24V95.86H0V242.74H291.82V95.86ZM52.25,212.94A55.8,55.8,0,0,1,81,205a57.21,57.21,0,0,1,29.05,8Zm82.13-6.71c-11.71-10.33-29.72-21-53.35-21h0c-23.26,0-40.87,10.32-52.35,20.53V81.05A77.06,77.06,0,0,1,41.77,65.91c9.22-8.08,22-15.5,39.26-15.5,17.71,0,31.18,8,40.64,16.37a81.9,81.9,0,0,1,10.72,11.56c.83,1.07,1.48,2.07,2,2.82Zm72.19-189V165.12s-26.67-4.75-52.15,18.37V80.71h0V69.07S164,25.72,206.57,17.2ZM177.79,212.94a56,56,0,0,1,28.76-8,57.37,57.37,0,0,1,29.1,8ZM260,206.23c-11.77-10.37-29.74-21-53.41-21-23.23,0-40.87,10.32-52.39,20.53V205c22.16-30.1,68.43-22.09,68.43-22.09V52.75a65.58,65.58,0,0,1,24.68,14A79.32,79.32,0,0,1,257.9,78.33c.85,1.07,1.52,2.07,2.05,2.82V206.23Z"></path></svg></svg></g></svg>