<?xml version="1.0" standalone="no"?>
<!DOCTYPE svg PUBLIC "-//W3C//DTD SVG 20010904//EN"
 "http://www.w3.org/TR/2001/REC-SVG-20010904/DTD/svg10.dtd">
<svg version="1.0" xmlns="http://www.w3.org/2000/svg"
 width="1168.000000pt" height="1168.000000pt" viewBox="0 0 1168.000000 1168.000000"
 preserveAspectRatio="xMidYMid meet">
<metadata>
Created by potrace 1.14, written by Peter Selinger 2001-2017
</metadata>
<g transform="translate(0.000000,1168.000000) scale(0.100000,-0.100000)"
fill="#000000" stroke="none">
<path d="M8837 10694 c-1 -1 -33 -5 -72 -8 -100 -9 -197 -21 -255 -31 -14 -3
-41 -7 -60 -10 -19 -3 -73 -13 -120 -22 -47 -8 -89 -16 -95 -17 -5 -1 -16 -5
-23 -10 -7 -4 -16 -6 -19 -3 -2 3 -26 0 -51 -8 -26 -7 -92 -25 -147 -40 -114
-31 -384 -124 -450 -154 -11 -5 -68 -32 -128 -60 -59 -28 -112 -51 -117 -51
-6 0 -10 -4 -10 -9 0 -5 -9 -13 -21 -16 -29 -9 -159 -87 -257 -154 -46 -31
-94 -63 -106 -71 -52 -35 -196 -154 -196 -162 0 -4 -5 -8 -11 -8 -10 0 -236
-223 -284 -281 -111 -132 -279 -374 -322 -464 -9 -19 -20 -35 -25 -35 -4 0 -8
-7 -8 -15 0 -9 -11 -33 -24 -54 -14 -21 -22 -42 -19 -45 4 -3 1 -6 -5 -6 -7 0
-12 -6 -12 -12 0 -7 -7 -26 -16 -43 -26 -49 -95 -218 -100 -244 -3 -13 -12
-37 -20 -52 -8 -16 -12 -29 -8 -29 4 0 1 -7 -6 -15 -7 -8 -9 -15 -5 -15 4 0 2
-7 -5 -15 -7 -9 -10 -18 -7 -22 3 -3 0 -21 -8 -39 -8 -19 -11 -34 -8 -34 3 0
1 -6 -5 -12 -6 -7 -10 -17 -11 -23 0 -11 -8 -56 -17 -95 -3 -14 -6 -33 -7 -43
-3 -26 -14 -21 -50 20 -59 69 -271 278 -367 363 -52 45 -149 123 -215 171 -66
49 -125 93 -132 99 -7 5 -17 10 -23 10 -5 0 -10 3 -10 8 0 6 -20 19 -85 57
-11 7 -36 22 -55 34 -19 12 -43 24 -52 27 -10 4 -18 11 -18 17 0 6 -3 7 -6 4
-4 -4 -19 2 -33 12 -14 10 -73 41 -131 69 -91 44 -132 62 -260 115 -29 12 -50
18 -67 19 -7 1 -13 5 -13 10 0 4 -7 8 -16 8 -8 0 -48 11 -87 24 -71 24 -243
69 -302 80 -16 3 -41 7 -55 10 -14 3 -41 7 -60 10 -19 3 -47 8 -62 11 -14 3
-46 7 -71 9 -24 1 -49 6 -56 10 -6 4 -11 2 -11 -4 0 -6 -5 -8 -12 -4 -35 22
-498 22 -628 0 -14 -3 -47 -7 -75 -10 -27 -3 -86 -13 -130 -21 -44 -9 -91 -18
-105 -20 -37 -7 -168 -42 -225 -60 -27 -9 -54 -18 -60 -19 -5 -1 -35 -11 -65
-21 -30 -11 -57 -20 -60 -20 -64 -17 -461 -208 -468 -226 -2 -5 -8 -9 -13 -9
-13 0 -203 -120 -207 -131 -2 -5 -10 -9 -17 -9 -7 0 -15 -3 -17 -7 -1 -5 -23
-21 -48 -37 -25 -17 -49 -35 -55 -40 -5 -6 -28 -24 -50 -40 -22 -16 -47 -37
-56 -45 -9 -9 -31 -27 -49 -41 -61 -48 -320 -295 -320 -306 0 -2 -17 -21 -37
-42 -61 -63 -123 -138 -211 -256 -45 -61 -91 -122 -102 -136 -11 -14 -20 -30
-20 -37 0 -6 -3 -13 -8 -15 -4 -1 -27 -34 -51 -73 -30 -48 -53 -101 -71 -170
-27 -99 -27 -104 -28 -420 0 -176 -1 -334 -1 -351 l-1 -32 -139 1 c-76 0 -143
-3 -149 -7 -6 -3 -12 -2 -14 4 -1 5 -13 7 -26 4 l-22 -6 0 -2939 0 -2939 5840
0 5840 0 0 2940 c0 2793 -1 2940 -17 2941 -10 0 -118 1 -240 1 -162 0 -223 3
-224 11 -1 7 -2 172 -4 367 -2 285 -6 365 -18 405 -8 28 -20 65 -26 83 -5 17
-7 32 -4 32 2 0 -9 17 -26 38 -16 21 -35 50 -42 65 -7 15 -16 27 -21 27 -4 0
-8 7 -8 15 0 8 -4 15 -10 15 -5 0 -10 7 -10 15 0 8 -3 15 -8 15 -4 0 -18 18
-32 40 -14 22 -28 40 -32 40 -5 0 -8 4 -8 10 0 5 -6 18 -14 27 -8 10 -40 50
-71 88 -110 137 -274 310 -411 434 -32 29 -72 66 -89 81 -48 43 -222 177 -289
222 -33 23 -62 45 -64 50 -2 4 -7 8 -12 8 -5 0 -45 23 -89 50 -154 95 -518
269 -584 279 -4 0 -20 7 -36 15 -16 9 -31 12 -35 9 -3 -4 -6 -2 -6 3 0 5 -8
10 -17 11 -10 1 -52 12 -93 26 -41 13 -110 32 -152 42 l-78 19 0 648 0 649
-35 -3 c-20 -1 -37 -3 -38 -4z m-570 -3645 l0 -2958 -76 6 c-130 10 -359 4
-466 -12 -16 -2 -48 -7 -70 -10 -22 -3 -53 -8 -70 -12 -16 -4 -39 -8 -50 -9
-23 -3 -60 -12 -60 -14 0 -1 -11 -3 -25 -5 -38 -5 -194 -52 -290 -86 -97 -35
-327 -136 -350 -154 -8 -7 -22 -15 -32 -18 -9 -3 -46 -24 -83 -46 -37 -23 -69
-41 -71 -41 -4 0 -158 -105 -179 -122 -5 -5 -46 -36 -89 -70 -88 -68 -106 -83
-143 -116 -20 -18 -28 -21 -34 -11 -4 7 -5 17 -3 21 5 7 7 298 3 323 -1 6 0
15 1 20 3 11 2 197 -1 205 -1 3 0 10 1 15 5 24 2 144 -4 153 -3 6 -3 13 1 15
9 6 9 59 0 73 -3 6 -3 15 1 21 6 10 7 107 1 123 -1 3 -1 9 0 14 3 12 3 307 0
321 -1 6 0 15 1 20 3 11 2 197 -1 205 -1 3 0 10 1 15 5 24 2 144 -4 153 -3 6
-3 13 1 15 7 4 9 62 3 77 -1 3 -1 10 0 15 3 11 2 197 -1 205 -1 3 0 10 1 15 2
14 3 137 0 150 -1 6 -2 13 -1 18 1 4 2 34 2 67 0 33 -1 63 -2 68 -1 4 0 12 1
17 2 14 3 137 0 150 -1 6 -2 13 -1 18 1 4 2 34 2 67 0 33 -1 63 -2 68 -1 4 0
12 1 17 2 14 3 137 0 150 -1 6 -2 13 -1 18 1 4 2 34 2 67 0 33 -1 63 -2 68 -1
4 0 12 1 17 2 14 3 137 0 150 -1 6 -2 13 -1 18 1 4 2 34 2 67 0 33 -1 63 -2
68 -1 4 0 12 1 17 2 14 3 137 0 150 -1 6 -2 13 -1 18 3 9 3 125 0 135 -1 4 0
12 1 17 2 14 3 137 0 150 -1 6 -2 13 -1 18 1 4 2 34 2 67 0 33 -1 63 -2 68 -1
4 0 12 1 17 2 14 3 137 0 150 -1 6 -2 13 -1 18 1 4 2 34 2 67 0 33 -1 63 -2
68 -1 4 0 12 1 17 2 14 3 137 0 150 -1 6 -1 12 0 15 5 15 4 73 -3 77 -4 2 -3
12 3 22 5 10 7 21 4 24 -3 3 2 32 11 64 9 32 18 65 20 73 16 75 139 371 215
515 69 131 181 320 199 335 3 3 20 25 36 50 16 25 32 47 36 50 3 3 18 23 35
45 119 161 321 362 498 496 67 50 203 142 226 152 8 4 31 17 50 28 49 30 227
119 238 119 5 0 24 8 43 17 19 10 39 18 44 20 6 1 53 16 105 33 52 18 100 33
105 35 6 1 13 4 17 5 36 12 165 45 183 46 l22 2 0 -2959z m-4877 1627 c63 -3
126 -8 140 -11 14 -3 40 -7 57 -9 46 -6 142 -26 178 -36 17 -5 41 -11 55 -14
30 -5 221 -66 235 -74 6 -4 12 -7 15 -8 22 -4 103 -40 205 -92 50 -25 100 -50
112 -56 13 -6 23 -14 23 -18 0 -5 4 -8 10 -8 13 0 114 -62 118 -72 2 -4 10 -8
18 -8 8 0 14 -4 14 -8 0 -4 15 -16 33 -27 29 -17 146 -105 173 -130 6 -5 30
-26 54 -45 47 -37 262 -249 320 -315 20 -22 62 -74 95 -115 33 -41 66 -81 73
-88 6 -7 12 -17 12 -21 0 -4 10 -18 23 -31 l22 -25 2 -2507 c1 -1380 -2 -2508
-5 -2508 -4 0 -25 17 -47 38 -22 20 -85 71 -140 112 -55 41 -102 77 -105 80
-9 10 -222 147 -270 174 -19 11 -53 30 -75 42 -52 29 -168 87 -177 88 -4 1
-13 7 -20 13 -6 7 -18 13 -25 13 -8 0 -30 8 -51 19 -38 19 -226 91 -252 96 -8
2 -16 4 -17 5 -2 2 -7 4 -13 5 -5 1 -12 3 -15 4 -3 0 -8 1 -12 2 -5 1 -16 5
-26 11 -10 5 -27 11 -38 14 -10 2 -27 6 -36 8 -112 28 -235 56 -263 60 -19 3
-46 8 -59 10 -13 3 -49 8 -80 12 -31 3 -65 8 -76 10 -11 3 -74 7 -140 9 -66 3
-122 5 -125 6 -23 6 -149 3 -164 -4 -14 -7 -16 -6 -11 4 5 8 4 10 -4 5 -6 -4
-51 -9 -99 -11 -49 -2 -102 -6 -119 -9 -17 -3 -49 -8 -72 -11 -23 -3 -58 -7
-78 -10 -37 -4 -79 -13 -243 -50 -41 -9 -79 -18 -85 -19 -5 -1 -14 -4 -20 -8
-5 -3 -26 -9 -45 -13 -19 -4 -41 -12 -47 -17 -7 -6 -13 -7 -13 -3 0 4 -7 2
-15 -5 -8 -7 -15 -10 -15 -7 0 6 -111 -33 -167 -58 -17 -8 -34 -15 -37 -15 -7
0 -216 -97 -236 -110 -8 -5 -41 -23 -72 -39 -77 -41 -102 -55 -108 -62 -3 -3
-31 -21 -62 -40 -32 -18 -58 -37 -58 -41 0 -5 -5 -8 -10 -8 -12 0 -73 -41 -78
-52 -2 -5 -10 -8 -18 -8 -8 0 -14 -4 -14 -8 0 -4 -12 -15 -27 -24 -16 -9 -38
-25 -49 -35 -12 -10 -37 -30 -55 -45 -65 -51 -103 -83 -121 -100 -17 -17 -18
-17 -18 0 0 9 0 1134 0 2500 l-1 2483 31 39 c16 21 30 43 30 49 0 6 5 11 10
11 6 0 10 6 10 14 0 8 3 16 8 18 4 2 23 23 42 48 18 25 41 52 49 61 9 8 27 30
41 48 14 18 47 56 73 84 115 124 138 147 141 147 2 0 30 25 62 56 33 30 80 72
107 92 26 20 47 40 47 44 0 4 6 8 13 8 7 0 23 10 37 23 14 12 45 35 70 52 25
16 47 32 50 36 7 8 160 99 166 99 3 0 18 8 32 18 86 58 407 183 532 208 14 3
41 9 60 14 32 8 130 25 205 35 17 3 77 7 135 11 58 3 106 7 107 8 1 1 17 1 35
0 18 -2 85 -5 148 -8z m5576 -106 c13 0 26 -4 29 -10 3 -5 12 -10 20 -10 8 0
26 -5 42 -12 15 -6 30 -12 33 -13 3 -1 18 -7 33 -13 16 -7 31 -12 34 -12 10 0
267 -131 326 -167 34 -20 89 -56 122 -79 33 -23 78 -53 100 -68 22 -15 42 -30
45 -34 3 -4 22 -20 43 -35 163 -122 471 -454 585 -632 l26 -40 1 -2443 c0
-1621 -3 -2442 -10 -2442 -6 0 -6 -3 0 -8 13 -8 14 -92 2 -93 -5 -1 -30 16
-55 37 -25 22 -60 50 -76 64 -49 41 -206 154 -271 195 -33 21 -76 48 -95 60
-223 141 -566 292 -795 351 -223 57 -320 77 -425 89 -30 4 -67 8 -81 11 -15 2
-65 6 -113 8 -48 3 -91 8 -96 11 -6 3 -10 1 -10 -5 0 -7 -6 -8 -17 -2 -20 9
-79 9 -89 0 -3 -4 -16 -3 -28 0 -11 4 -41 6 -66 5 -25 -2 -74 -5 -110 -7 -134
-7 -379 -42 -457 -65 -18 -5 -33 -7 -33 -5 0 3 -6 2 -12 -3 -13 -8 -27 -11
-63 -16 -12 -2 -25 -6 -30 -9 -6 -3 -32 -11 -60 -17 -27 -7 -59 -16 -70 -21
-11 -4 -60 -22 -110 -39 -49 -18 -99 -36 -110 -41 -11 -5 -42 -19 -70 -30 -81
-35 -178 -83 -207 -103 -16 -10 -28 -16 -28 -13 0 4 -29 -12 -64 -34 -35 -22
-68 -40 -75 -40 -6 0 -11 -3 -11 -8 0 -4 -17 -16 -37 -27 -21 -11 -40 -22 -43
-25 -3 -3 -32 -23 -65 -45 -33 -22 -72 -49 -86 -60 -15 -11 -39 -29 -54 -40
-16 -11 -34 -26 -41 -32 -7 -7 -15 -13 -18 -13 -3 0 -16 -10 -29 -22 -29 -29
-107 -92 -118 -96 -16 -7 -2 27 26 63 62 77 92 111 167 186 79 78 230 206 258
217 8 3 17 8 20 11 10 11 79 61 85 61 3 0 38 19 78 43 39 23 95 53 122 66 28
13 58 28 68 33 109 54 448 165 467 153 6 -3 10 -2 10 3 0 5 21 13 48 17 26 5
52 10 57 11 6 2 26 6 45 9 19 3 42 8 50 11 8 4 33 8 55 10 22 2 49 5 60 8 38
8 162 21 290 32 100 8 456 8 550 -1 39 -3 86 -7 105 -9 19 -2 65 -7 103 -11
l67 -7 0 2599 c0 1430 3 2603 7 2607 4 3 11 2 17 -4 5 -5 20 -10 32 -10z
m-531 -6084 c44 -3 91 -7 105 -10 14 -2 43 -7 65 -10 36 -5 186 -33 210 -40 6
-2 24 -6 40 -11 40 -10 126 -35 145 -43 8 -3 18 -4 23 -4 4 1 7 -3 7 -8 0 -5
3 -9 8 -8 14 3 67 -15 115 -39 26 -13 47 -20 47 -17 0 4 8 1 18 -7 9 -8 59
-34 109 -59 51 -25 93 -47 93 -50 0 -3 -517 -6 -1150 -6 -632 0 -1146 3 -1142
7 8 8 247 129 255 129 2 0 26 10 53 22 27 12 57 23 67 25 10 2 31 10 47 18 16
8 33 15 37 14 4 -1 11 0 16 1 4 1 10 3 15 4 4 2 27 8 52 16 25 7 51 15 59 16
7 1 34 8 60 14 117 27 166 34 321 46 47 3 86 7 87 8 3 2 148 -3 238 -8z
m-4920 -11 c22 -3 75 -13 118 -21 44 -7 83 -11 88 -8 5 3 9 1 9 -5 0 -5 8 -10
18 -10 44 -2 62 -6 62 -13 0 -4 8 -8 19 -8 17 0 183 -51 226 -69 11 -5 38 -16
60 -26 80 -33 275 -130 275 -137 0 -7 -2270 -8 -2283 0 -10 5 212 117 298 150
33 13 67 27 75 31 9 5 31 12 50 16 19 4 40 11 46 17 7 5 16 8 20 7 5 -1 11 0
14 1 19 7 237 57 280 64 19 3 64 9 100 12 36 4 67 8 69 10 6 6 413 -4 456 -11z"/>
</g>
</svg>
